  0
SECTION
  2
HEADER
  9
$ACADVER
  1
AC1024
  9
$ACADMAINTVER
 70
6
  9
$DWGCODEPAGE
  3
ANSI_1252
  9
$LASTSAVEDBY
  1
ezdxf
  9
$INSBASE
 10
0.0
 20
0.0
 30
0.0
  9
$EXTMIN
 10
1e+20
 20
1e+20
 30
1e+20
  9
$EXTMAX
 10
-1e+20
 20
-1e+20
 30
-1e+20
  9
$LIMMIN
 10
0.0
 20
0.0
  9
$LIMMAX
 10
420.0
 20
297.0
  9
$ORTHOMODE
 70
0
  9
$REGENMODE
 70
1
  9
$FILLMODE
 70
1
  9
$QTEXTMODE
 70
0
  9
$MIRRTEXT
 70
1
  9
$LTSCALE
 40
1.0
  9
$ATTMODE
 70
1
  9
$TEXTSIZE
 40
2.5
  9
$TRACEWID
 40
1.0
  9
$TEXTSTYLE
  7
Standard
  9
$CLAYER
  8
0
  9
$CELTYPE
  6
ByLayer
  9
$CECOLOR
 62
256
  9
$CELTSCALE
 40
1.0
  9
$DISPSILH
 70
0
  9
$DIMSCALE
 40
1.0
  9
$DIMASZ
 40
2.5
  9
$DIMEXO
 40
0.625
  9
$DIMDLI
 40
3.75
  9
$DIMRND
 40
0.0
  9
$DIMDLE
 40
0.0
  9
$DIMEXE
 40
1.25
  9
$DIMTP
 40
0.0
  9
$DIMTM
 40
0.0
  9
$DIMTXT
 40
2.5
  9
$DIMCEN
 40
2.5
  9
$DIMTSZ
 40
0.0
  9
$DIMTOL
 70
0
  9
$DIMLIM
 70
0
  9
$DIMTIH
 70
0
  9
$DIMTOH
 70
0
  9
$DIMSE1
 70
0
  9
$DIMSE2
 70
0
  9
$DIMTAD
 70
1
  9
$DIMZIN
 70
8
  9
$DIMBLK
  1

  9
$DIMASO
 70
1
  9
$DIMSHO
 70
1
  9
$DIMPOST
  1

  9
$DIMAPOST
  1

  9
$DIMALT
 70
0
  9
$DIMALTD
 70
3
  9
$DIMALTF
 40
0.03937007874
  9
$DIMLFAC
 40
1.0
  9
$DIMTOFL
 70
1
  9
$DIMTVP
 40
0.0
  9
$DIMTIX
 70
0
  9
$DIMSOXD
 70
0
  9
$DIMSAH
 70
0
  9
$DIMBLK1
  1

  9
$DIMBLK2
  1

  9
$DIMSTYLE
  2
ISO-25
  9
$DIMCLRD
 70
0
  9
$DIMCLRE
 70
0
  9
$DIMCLRT
 70
0
  9
$DIMTFAC
 40
1.0
  9
$DIMGAP
 40
0.625
  9
$DIMJUST
 70
0
  9
$DIMSD1
 70
0
  9
$DIMSD2
 70
0
  9
$DIMTOLJ
 70
0
  9
$DIMTZIN
 70
8
  9
$DIMALTZ
 70
0
  9
$DIMALTTZ
 70
0
  9
$DIMUPT
 70
0
  9
$DIMDEC
 70
2
  9
$DIMTDEC
 70
2
  9
$DIMALTU
 70
2
  9
$DIMALTTD
 70
3
  9
$DIMTXSTY
  7
Standard
  9
$DIMAUNIT
 70
0
  9
$DIMADEC
 70
0
  9
$DIMALTRND
 40
0.0
  9
$DIMAZIN
 70
0
  9
$DIMDSEP
 70
44
  9
$DIMATFIT
 70
3
  9
$DIMFRAC
 70
0
  9
$DIMLDRBLK
  1

  9
$DIMLUNIT
 70
2
  9
$DIMLWD
 70
-2
  9
$DIMLWE
 70
-2
  9
$DIMTMOVE
 70
0
  9
$DIMFXL
 40
1.0
  9
$DIMFXLON
 70
0
  9
$DIMJOGANG
 40
0.785398163397
  9
$DIMTFILL
 70
0
  9
$DIMTFILLCLR
 70
0
  9
$DIMARCSYM
 70
0
  9
$DIMLTYPE
  6

  9
$DIMLTEX1
  6

  9
$DIMLTEX2
  6

  9
$DIMTXTDIRECTION
 70
0
  9
$LUNITS
 70
2
  9
$LUPREC
 70
4
  9
$SKETCHINC
 40
1.0
  9
$FILLETRAD
 40
10.0
  9
$AUNITS
 70
0
  9
$AUPREC
 70
2
  9
$MENU
  1
.
  9
$ELEVATION
 40
0.0
  9
$PELEVATION
 40
0.0
  9
$THICKNESS
 40
0.0
  9
$LIMCHECK
 70
0
  9
$CHAMFERA
 40
0.0
  9
$CHAMFERB
 40
0.0
  9
$CHAMFERC
 40
0.0
  9
$CHAMFERD
 40
0.0
  9
$SKPOLY
 70
0
  9
$TDCREATE
 40
2461314.3649305557
  9
$TDUCREATE
 40
2458532.153996898
  9
$TDUPDATE
 40
2461314.3649305557
  9
$TDUUPDATE
 40
2458532.1544311
  9
$TDINDWG
 40
0.0
  9
$TDUSRTIMER
 40
0.0
  9
$USRTIMER
 70
1
  9
$ANGBASE
 50
0.0
  9
$ANGDIR
 70
0
  9
$PDMODE
 70
0
  9
$PDSIZE
 40
0.0
  9
$PLINEWID
 40
0.0
  9
$SPLFRAME
 70
0
  9
$SPLINETYPE
 70
6
  9
$SPLINESEGS
 70
8
  9
$HANDSEED
  5
1CF
  9
$SURFTAB1
 70
6
  9
$SURFTAB2
 70
6
  9
$SURFTYPE
 70
6
  9
$SURFU
 70
6
  9
$SURFV
 70
6
  9
$UCSBASE
  2

  9
$UCSNAME
  2

  9
$UCSORG
 10
0.0
 20
0.0
 30
0.0
  9
$UCSXDIR
 10
1.0
 20
0.0
 30
0.0
  9
$UCSYDIR
 10
0.0
 20
1.0
 30
0.0
  9
$UCSORTHOREF
  2

  9
$UCSORTHOVIEW
 70
0
  9
$UCSORGTOP
 10
0.0
 20
0.0
 30
0.0
  9
$UCSORGBOTTOM
 10
0.0
 20
0.0
 30
0.0
  9
$UCSORGLEFT
 10
0.0
 20
0.0
 30
0.0
  9
$UCSORGRIGHT
 10
0.0
 20
0.0
 30
0.0
  9
$UCSORGFRONT
 10
0.0
 20
0.0
 30
0.0
  9
$UCSORGBACK
 10
0.0
 20
0.0
 30
0.0
  9
$PUCSBASE
  2

  9
$PUCSNAME
  2

  9
$PUCSORG
 10
0.0
 20
0.0
 30
0.0
  9
$PUCSXDIR
 10
1.0
 20
0.0
 30
0.0
  9
$PUCSYDIR
 10
0.0
 20
1.0
 30
0.0
  9
$PUCSORTHOREF
  2

  9
$PUCSORTHOVIEW
 70
0
  9
$PUCSORGTOP
 10
0.0
 20
0.0
 30
0.0
  9
$PUCSORGBOTTOM
 10
0.0
 20
0.0
 30
0.0
  9
$PUCSORGLEFT
 10
0.0
 20
0.0
 30
0.0
  9
$PUCSORGRIGHT
 10
0.0
 20
0.0
 30
0.0
  9
$PUCSORGFRONT
 10
0.0
 20
0.0
 30
0.0
  9
$PUCSORGBACK
 10
0.0
 20
0.0
 30
0.0
  9
$USERI1
 70
0
  9
$USERI2
 70
0
  9
$USERI3
 70
0
  9
$USERI4
 70
0
  9
$USERI5
 70
0
  9
$USERR1
 40
0.0
  9
$USERR2
 40
0.0
  9
$USERR3
 40
0.0
  9
$USERR4
 40
0.0
  9
$USERR5
 40
0.0
  9
$WORLDVIEW
 70
1
  9
$SHADEDGE
 70
3
  9
$SHADEDIF
 70
70
  9
$TILEMODE
 70
1
  9
$MAXACTVP
 70
64
  9
$PINSBASE
 10
0.0
 20
0.0
 30
0.0
  9
$PLIMCHECK
 70
0
  9
$PEXTMIN
 10
1e+20
 20
1e+20
 30
1e+20
  9
$PEXTMAX
 10
-1e+20
 20
-1e+20
 30
-1e+20
  9
$PLIMMIN
 10
0.0
 20
0.0
  9
$PLIMMAX
 10
420.0
 20
297.0
  9
$UNITMODE
 70
0
  9
$VISRETAIN
 70
1
  9
$PLINEGEN
 70
0
  9
$PSLTSCALE
 70
1
  9
$TREEDEPTH
 70
3020
  9
$CMLSTYLE
  2
Standard
  9
$CMLJUST
 70
0
  9
$CMLSCALE
 40
20.0
  9
$PROXYGRAPHICS
 70
1
  9
$MEASUREMENT
 70
1
  9
$CELWEIGHT
370
-1
  9
$ENDCAPS
280
0
  9
$JOINSTYLE
280
0
  9
$LWDISPLAY
290
0
  9
$INSUNITS
 70
6
  9
$HYPERLINKBASE
  1

  9
$STYLESHEET
  1

  9
$XEDIT
290
1
  9
$CEPSNTYPE
380
0
  9
$PSTYLEMODE
290
1
  9
$FINGERPRINTGUID
  2
{ED29155F-5FAB-49FB-9ACF-DBE7D118D05F}
  9
$VERSIONGUID
  2
{09651FB9-E91B-4438-8F15-FF378E54F146}
  9
$EXTNAMES
290
1
  9
$PSVPSCALE
 40
0.0
  9
$OLESTARTUP
290
0
  9
$SORTENTS
280
127
  9
$INDEXCTL
280
0
  9
$HIDETEXT
280
1
  9
$XCLIPFRAME
280
1
  9
$HALOGAP
280
0
  9
$OBSCOLOR
 70
257
  9
$OBSLTYPE
280
0
  9
$INTERSECTIONDISPLAY
280
0
  9
$INTERSECTIONCOLOR
 70
257
  9
$DIMASSOC
280
2
  9
$PROJECTNAME
  1

  9
$CAMERADISPLAY
290
0
  9
$LENSLENGTH
 40
50.0
  9
$CAMERAHEIGHT
 40
0.0
  9
$STEPSPERSEC
 40
24.0
  9
$STEPSIZE
 40
100.0
  9
$3DDWFPREC
 40
2.0
  9
$PSOLWIDTH
 40
0.005
  9
$PSOLHEIGHT
 40
0.08
  9
$LOFTANG1
 40
1.570796326795
  9
$LOFTANG2
 40
1.570796326795
  9
$LOFTMAG1
 40
0.0
  9
$LOFTMAG2
 40
0.0
  9
$LOFTPARAM
 70
7
  9
$LOFTNORMALS
280
1
  9
$LATITUDE
 40
37.795
  9
$LONGITUDE
 40
-122.394
  9
$NORTHDIRECTION
 40
0.0
  9
$TIMEZONE
 70
-8000
  9
$LIGHTGLYPHDISPLAY
280
1
  9
$TILEMODELIGHTSYNCH
280
1
  9
$CMATERIAL
347
20
  9
$SOLIDHIST
280
0
  9
$SHOWHIST
280
1
  9
$DWFFRAME
280
2
  9
$DGNFRAME
280
2
  9
$REALWORLDSCALE
290
1
  9
$INTERFERECOLOR
 62
256
  9
$CSHADOW
280
0
  9
$SHADOWPLANELOCATION
 40
0.0
  0
ENDSEC
  0
SECTION
  2
CLASSES
  0
CLASS
  1
ACDBDICTIONARYWDFLT
  2
AcDbDictionaryWithDefault
  3
ObjectDBX Classes
 90
0
 91
0
280
0
281
0
  0
CLASS
  1
SUN
  2
AcDbSun
  3
SCENEOE
 90
1153
 91
0
280
0
281
0
  0
CLASS
  1
VISUALSTYLE
  2
AcDbVisualStyle
  3
ObjectDBX Classes
 90
4095
 91
0
280
0
281
0
  0
CLASS
  1
MATERIAL
  2
AcDbMaterial
  3
ObjectDBX Classes
 90
1153
 91
0
280
0
281
0
  0
CLASS
  1
SCALE
  2
AcDbScale
  3
ObjectDBX Classes
 90
1153
 91
0
280
0
281
0
  0
CLASS
  1
TABLESTYLE
  2
AcDbTableStyle
  3
ObjectDBX Classes
 90
4095
 91
0
280
0
281
0
  0
CLASS
  1
MLEADERSTYLE
  2
AcDbMLeaderStyle
  3
ACDB_MLEADERSTYLE_CLASS
 90
4095
 91
0
280
0
281
0
  0
CLASS
  1
DICTIONARYVAR
  2
AcDbDictionaryVar
  3
ObjectDBX Classes
 90
0
 91
0
280
0
281
0
  0
CLASS
  1
CELLSTYLEMAP
  2
AcDbCellStyleMap
  3
ObjectDBX Classes
 90
1152
 91
0
280
0
281
0
  0
CLASS
  1
MENTALRAYRENDERSETTINGS
  2
AcDbMentalRayRenderSettings
  3
SCENEOE
 90
1024
 91
0
280
0
281
0
  0
CLASS
  1
ACDBDETAILVIEWSTYLE
  2
AcDbDetailViewStyle
  3
ObjectDBX Classes
 90
1025
 91
0
280
0
281
0
  0
CLASS
  1
ACDBSECTIONVIEWSTYLE
  2
AcDbSectionViewStyle
  3
ObjectDBX Classes
 90
1025
 91
0
280
0
281
0
  0
CLASS
  1
RASTERVARIABLES
  2
AcDbRasterVariables
  3
ISM
 90
0
 91
0
280
0
281
0
  0
CLASS
  1
ACDBPLACEHOLDER
  2
AcDbPlaceHolder
  3
ObjectDBX Classes
 90
0
 91
0
280
0
281
0
  0
CLASS
  1
LAYOUT
  2
AcDbLayout
  3
ObjectDBX Classes
 90
0
 91
0
280
0
281
0
  0
ENDSEC
  0
SECTION
  2
TABLES
  0
TABLE
  2
VPORT
  5
8
330
0
100
AcDbSymbolTable
 70
1
  0
VPORT
  5
23
330
8
100
AcDbSymbolTableRecord
100
AcDbViewportTableRecord
  2
*Active
 70
0
 10
0.0
 20
0.0
 11
1.0
 21
1.0
 12
0.0
 22
0.0
 13
0.0
 23
0.0
 14
0.5
 24
0.5
 15
0.5
 25
0.5
 16
0.0
 26
0.0
 36
1.0
 17
0.0
 27
0.0
 37
0.0
 40
1000.0
 41
1.34
 42
50.0
 43
0.0
 44
0.0
 50
0.0
 51
0.0
 71
0
 72
1000
 73
1
 74
3
 75
0
 76
0
 77
0
 78
0
281
0
 65
0
146
0.0
  0
ENDTAB
  0
TABLE
  2
LTYPE
  5
2
330
0
100
AcDbSymbolTable
 70
3
  0
LTYPE
  5
24
330
2
100
AcDbSymbolTableRecord
100
AcDbLinetypeTableRecord
  2
ByBlock
 70
0
  3

 72
65
 73
0
 40
0.0
  0
LTYPE
  5
25
330
2
100
AcDbSymbolTableRecord
100
AcDbLinetypeTableRecord
  2
ByLayer
 70
0
  3

 72
65
 73
0
 40
0.0
  0
LTYPE
  5
26
330
2
100
AcDbSymbolTableRecord
100
AcDbLinetypeTableRecord
  2
Continuous
 70
0
  3

 72
65
 73
0
 40
0.0
  0
ENDTAB
  0
TABLE
  2
LAYER
  5
1
330
0
100
AcDbSymbolTable
 70
9
  0
LAYER
  5
27
330
1
100
AcDbSymbolTableRecord
100
AcDbLayerTableRecord
  2
0
 70
0
 62
7
  6
Continuous
370
-3
390
13
347
21
  0
LAYER
  5
28
330
1
100
AcDbSymbolTableRecord
100
AcDbLayerTableRecord
  2
Defpoints
 70
0
 62
7
  6
Continuous
290
0
370
-3
390
13
347
21
  0
LAYER
  5
2F
330
1
100
AcDbSymbolTableRecord
100
AcDbLayerTableRecord
  2
property
 70
0
 62
7
  6
Continuous
370
-3
390
13
347
21
  0
LAYER
  5
30
330
1
100
AcDbSymbolTableRecord
100
AcDbLayerTableRecord
  2
sectors
 70
0
 62
4
  6
Continuous
370
-3
390
13
347
21
  0
LAYER
  5
31
330
1
100
AcDbSymbolTableRecord
100
AcDbLayerTableRecord
  2
zones
 70
0
 62
3
  6
Continuous
370
-3
390
13
347
21
  0
LAYER
  5
32
330
1
100
AcDbSymbolTableRecord
100
AcDbLayerTableRecord
  2
valves
 70
0
 62
1
  6
Continuous
370
-3
390
13
347
21
  0
LAYER
  5
33
330
1
100
AcDbSymbolTableRecord
100
AcDbLayerTableRecord
  2
pipes
 70
0
 62
5
  6
Continuous
370
-3
390
13
347
21
  0
LAYER
  5
34
330
1
100
AcDbSymbolTableRecord
100
AcDbLayerTableRecord
  2
rows
 70
0
 62
2
  6
Continuous
370
-3
390
13
347
21
  0
LAYER
  5
35
330
1
100
AcDbSymbolTableRecord
100
AcDbLayerTableRecord
  2
trees
 70
0
 62
6
  6
Continuous
370
-3
390
13
347
21
  0
ENDTAB
  0
TABLE
  2
STYLE
  5
5
330
0
100
AcDbSymbolTable
 70
1
  0
STYLE
  5
29
330
5
100
AcDbSymbolTableRecord
100
AcDbTextStyleTableRecord
  2
Standard
 70
0
 40
0.0
 41
1.0
 50
0.0
 71
0
 42
2.5
  3
txt
  4

  0
ENDTAB
  0
TABLE
  2
VIEW
  5
7
330
0
100
AcDbSymbolTable
 70
0
  0
ENDTAB
  0
TABLE
  2
UCS
  5
6
330
0
100
AcDbSymbolTable
 70
0
  0
ENDTAB
  0
TABLE
  2
APPID
  5
3
330
0
100
AcDbSymbolTable
 70
3
  0
APPID
  5
2A
330
3
100
AcDbSymbolTableRecord
100
AcDbRegAppTableRecord
  2
ACAD
 70
0
  0
APPID
  5
1CC
330
3
100
AcDbSymbolTableRecord
100
AcDbRegAppTableRecord
  2
HATCHBACKGROUNDCOLOR
 70
0
  0
APPID
  5
1CD
330
3
100
AcDbSymbolTableRecord
100
AcDbRegAppTableRecord
  2
EZDXF
 70
0
  0
ENDTAB
  0
TABLE
  2
DIMSTYLE
  5
4
330
0
100
AcDbSymbolTable
 70
1
100
AcDbDimStyleTable
  0
DIMSTYLE
105
2B
330
4
100
AcDbSymbolTableRecord
100
AcDbDimStyleTableRecord
  2
Standard
 70
0
 40
1.0
 41
2.5
 42
0.625
 43
3.75
 44
1.25
 45
0.0
 46
0.0
 47
0.0
 48
0.0
 49
2.5
140
2.5
141
2.5
142
0.0
143
0.03937007874
144
1.0
145
0.0
146
1.0
147
0.625
148
0.0
 69
0
 70
0
 71
0
 72
0
 73
0
 74
0
 75
0
 76
0
 77
1
 78
8
 79
3
170
0
171
3
172
1
173
0
174
0
175
0
176
0
177
0
178
0
179
2
271
2
272
2
273
2
274
3
275
0
276
0
277
2
278
44
279
0
280
0
281
0
282
0
283
0
284
8
285
0
286
0
288
0
289
3
290
0
371
-2
372
-2
  0
ENDTAB
  0
TABLE
  2
BLOCK_RECORD
  5
9
330
0
100
AcDbSymbolTable
 70
2
  0
BLOCK_RECORD
  5
17
330
9
100
AcDbSymbolTableRecord
100
AcDbBlockTableRecord
  2
*Model_Space
340
1A
 70
0
280
1
281
0
  0
BLOCK_RECORD
  5
1B
330
9
100
AcDbSymbolTableRecord
100
AcDbBlockTableRecord
  2
*Paper_Space
340
1E
 70
0
280
1
281
0
  0
ENDTAB
  0
ENDSEC
  0
SECTION
  2
BLOCKS
  0
BLOCK
  5
18
330
17
100
AcDbEntity
  8
0
100
AcDbBlockBegin
  2
*Model_Space
 70
0
 10
0.0
 20
0.0
 30
0.0
  3
*Model_Space
  1

  0
ENDBLK
  5
19
330
17
100
AcDbEntity
  8
0
100
AcDbBlockEnd
  0
BLOCK
  5
1C
330
1B
100
AcDbEntity
  8
0
100
AcDbBlockBegin
  2
*Paper_Space
 70
0
 10
0.0
 20
0.0
 30
0.0
  3
*Paper_Space
  1

  0
ENDBLK
  5
1D
330
1B
100
AcDbEntity
  8
0
100
AcDbBlockEnd
  0
ENDSEC
  0
SECTION
  2
ENTITIES
  0
LWPOLYLINE
  5
36
330
17
100
AcDbEntity
  8
property
100
AcDbPolyline
 90
43
 70
0
 10
131.82876368097016
 20
-32.96360670759431
 10
126.81404439109384
 20
-16.12869481360548
 10
125.27176424117702
 20
-3.1188883958550364
 10
129.73237090233727
 20
10.880552868745635
 10
129.73237090233727
 20
47.54152018286279
 10
133.69427619772688
 20
78.25355892229408
 10
105.95170391974116
 20
74.28390004130867
 10
106.44117007508925
 20
104.26205226421047
 10
110.9017767363315
 20
128.78053358984937
 10
112.26858788715352
 20
169.9115369551693
 10
96.04232307613789
 20
180.3082625970493
 10
78.20913164183747
 20
185.25643683209054
 10
61.85357388408587
 20
195.41965312765842
 10
59.2584797395183
 20
202.16918517485007
 10
43.03221492850267
 20
211.14261575563881
 10
24.70032212834957
 20
209.23006301712454
 10
11.817203510557462
 20
199.133563677533
 10
-0.44715600506857184
 20
237.52917184782424
 10
-158.84948613538563
 20
141.30108233017685
 10
-183.36896995621515
 20
-118.9284044961044
 10
-213.96522227207632
 20
-121.53036577997052
 10
-215.25815173910783
 20
-124.06561010707026
 10
-223.49595948614032
 20
-125.12196191068688
 10
-230.93030392140741
 20
-122.8869438850855
 10
-218.04718530369732
 20
-270.5204479907746
 10
-87.25813450462998
 20
-274.979364549183
 10
-81.8924772165641
 20
-206.65008212637738
 10
-78.84485775858471
 20
-187.91373698666874
 10
-69.9236444361822
 20
-170.32269959135172
 10
-56.54182445261946
 20
-155.58937181101166
 10
-87.25813450462998
 20
-132.79441184875245
 10
-75.37241861862522
 20
-80.2770479947023
 10
-46.641678819438766
 20
-48.57537440842079
 10
-32.77039268044591
 20
-35.68788241061865
 10
-40.69420327114309
 20
-26.770049293011837
 10
-0.945857370921235
 20
4.9316242932696825
 10
11.632499301040124
 20
-11.669778255197114
 10
23.70291939664424
 20
-27.89311805260477
 10
51.94419304048262
 20
-9.746106023888474
 10
89.46685321533563
 20
8.767849262302471
 10
95.84838365611598
 20
-6.032195474013904
 10
110.53236831713276
 20
-45.97341312455466
 10
131.82876368097016
 20
-32.96360670759431
  0
LWPOLYLINE
  5
37
330
17
100
AcDbEntity
  8
sectors
100
AcDbPolyline
 90
9
 70
0
 10
-5.07399645490105
 20
84.16912902017692
 10
9.693105100492875
 20
15.428425367929021
 10
-0.945857370921235
 20
4.9316242932696825
 10
23.70291939664424
 20
-27.89311805260477
 10
89.46685321533563
 20
8.767849262302471
 10
128.75343859164107
 20
27.748823240327578
 10
133.69427619772688
 20
78.25355892229408
 10
105.95170391974116
 20
74.28390004130867
 10
-5.07399645490105
 20
84.16912902017692
  0
LWPOLYLINE
  5
38
330
17
100
AcDbEntity
  8
sectors
100
AcDbPolyline
 90
5
 70
0
 10
-20.22897685042083
 20
154.48880063026743
 10
-5.07399645490105
 20
84.16912902017692
 10
105.95170391974116
 20
74.28390004130867
 10
112.26858788715352
 20
169.9115369551693
 10
-20.22897685042083
 20
154.48880063026743
  0
LWPOLYLINE
  5
39
330
17
100
AcDbEntity
  8
sectors
100
AcDbPolyline
 90
9
 70
0
 10
-158.84948613538563
 20
141.30108233017685
 10
112.26858788715352
 20
169.9115369551693
 10
61.85357388408587
 20
195.41965312765842
 10
59.2584797395183
 20
202.16918517485007
 10
43.03221492850267
 20
211.14261575563881
 10
24.70032212834957
 20
209.23006301712454
 10
11.817203510557462
 20
199.133563677533
 10
-0.44715600506857184
 20
237.52917184782424
 10
-158.84948613538563
 20
141.30108233017685
  0
LWPOLYLINE
  5
3A
330
17
100
AcDbEntity
  8
sectors
100
AcDbPolyline
 90
5
 70
0
 10
-158.84948613538563
 20
141.30108233017685
 10
-167.17041077663123
 20
56.425994822086416
 10
-5.07399645490105
 20
84.16912902017692
 10
-20.22897685042083
 20
154.48880063026743
 10
-158.84948613538563
 20
141.30108233017685
  0
LWPOLYLINE
  5
3B
330
17
100
AcDbEntity
  8
sectors
100
AcDbPolyline
 90
5
 70
0
 10
-5.07399645490105
 20
84.16912902017692
 10
-167.17041077663123
 20
56.425994822086416
 10
-40.69420327114309
 20
-26.770049293011837
 10
9.693105100492875
 20
15.428425367929021
 10
-5.07399645490105
 20
84.16912902017692
  0
LWPOLYLINE
  5
3C
330
17
100
AcDbEntity
  8
sectors
100
AcDbPolyline
 90
5
 70
0
 10
-167.17041077663123
 20
56.425994822086416
 10
-174.94645799966534
 20
-60.96248923679566
 10
-75.37241861862522
 20
-80.2770479947023
 10
-32.77039268044591
 20
-35.68788241061865
 10
-167.17041077663123
 20
56.425994822086416
  0
LWPOLYLINE
  5
3D
330
17
100
AcDbEntity
  8
sectors
100
AcDbPolyline
 90
9
 70
0
 10
-174.94645799966534
 20
-60.96248923679566
 10
-186.84140909625668
 20
-117.81645523009597
 10
-230.93030392140741
 20
-122.8869438850855
 10
-224.5857143225633
 20
-186.53491989596498
 10
-78.84485775858471
 20
-187.91373698666874
 10
-56.54182445261946
 20
-155.58937181101166
 10
-87.25813450462998
 20
-132.79441184875245
 10
-75.37241861862522
 20
-80.2770479947023
 10
-174.94645799966534
 20
-60.96248923679566
  0
LWPOLYLINE
  5
3E
330
17
100
AcDbEntity
  8
sectors
100
AcDbPolyline
 90
5
 70
0
 10
-218.04718530369732
 20
-270.5204479907746
 10
-87.25813450462998
 20
-274.979364549183
 10
-78.84485775858471
 20
-187.91373698666874
 10
-224.5857143225633
 20
-186.53491989596498
 10
-218.04718530369732
 20
-270.5204479907746
  0
LWPOLYLINE
  5
3F
330
17
100
AcDbEntity
  8
zones
100
AcDbPolyline
 90
7
 70
0
 10
23.70291939664424
 20
-27.89311805260477
 10
-0.945857370921235
 20
4.9316242932696825
 10
9.693105100492875
 20
15.428425367929021
 10
-5.07399645490105
 20
84.16912902017692
 10
36.661876221571106
 20
80.45315464093737
 10
36.661876221571106
 20
-20.668977630594192
 10
23.70291939664424
 20
-27.89311805260477
  0
LWPOLYLINE
  5
40
330
17
100
AcDbEntity
  8
zones
100
AcDbPolyline
 90
5
 70
0
 10
36.661876221571106
 20
-20.668977630594192
 10
36.661876221571106
 20
80.45315464093737
 10
75.05470279075513
 20
77.0348300500199
 10
75.05470279075513
 20
0.7336070120243985
 10
36.661876221571106
 20
-20.668977630594192
  0
LWPOLYLINE
  5
41
330
17
100
AcDbEntity
  8
zones
100
AcDbPolyline
 90
7
 70
0
 10
105.95170391974116
 20
74.28390004130867
 10
133.69427619772688
 20
78.25355892229408
 10
128.75343859164107
 20
27.748823240327578
 10
89.46685321533563
 20
8.767849262302471
 10
75.05470279075513
 20
0.7336070120243985
 10
75.05470279075513
 20
77.0348300500199
 10
105.95170391974116
 20
74.28390004130867
  0
LWPOLYLINE
  5
42
330
17
100
AcDbEntity
  8
zones
100
AcDbPolyline
 90
5
 70
0
 10
-5.07399645490105
 20
84.16912902017692
 10
-20.22897685042083
 20
154.48880063026743
 10
32.14951845513159
 20
160.5856653068025
 10
32.14951845513159
 20
80.85491467995992
 10
-5.07399645490105
 20
84.16912902017692
  0
LWPOLYLINE
  5
43
330
17
100
AcDbEntity
  8
zones
100
AcDbPolyline
 90
5
 70
0
 10
32.14951845513159
 20
80.85491467995992
 10
32.14951845513159
 20
160.5856653068025
 10
72.35605703327771
 20
165.2657124022545
 10
72.35605703327771
 20
77.27510533016616
 10
32.14951845513159
 20
80.85491467995992
  0
LWPOLYLINE
  5
44
330
17
100
AcDbEntity
  8
zones
100
AcDbPolyline
 90
5
 70
0
 10
112.26858788715352
 20
169.9115369551693
 10
105.95170391974116
 20
74.28390004130867
 10
72.35605703327771
 20
77.27510533016616
 10
72.35605703327771
 20
165.2657124022545
 10
112.26858788715352
 20
169.9115369551693
  0
LWPOLYLINE
  5
45
330
17
100
AcDbEntity
  8
zones
100
AcDbPolyline
 90
4
 70
0
 10
-158.84948613538563
 20
141.30108233017685
 10
-43.285307920273276
 20
211.50535317127756
 10
-43.285307920273276
 20
153.49629907822256
 10
-158.84948613538563
 20
141.30108233017685
  0
LWPOLYLINE
  5
46
330
17
100
AcDbEntity
  8
zones
100
AcDbPolyline
 90
6
 70
0
 10
-43.285307920273276
 20
153.49629907822256
 10
-43.285307920273276
 20
211.50535317127756
 10
-0.44715600506857184
 20
237.52917184782424
 10
5.345707654437865
 20
219.39365299167395
 10
5.345707654437865
 20
158.62821612016936
 10
-43.285307920273276
 20
153.49629907822256
  0
LWPOLYLINE
  5
47
330
17
100
AcDbEntity
  8
zones
100
AcDbPolyline
 90
9
 70
0
 10
11.817203510557462
 20
199.133563677533
 10
24.70032212834957
 20
209.23006301712454
 10
43.03221492850267
 20
211.14261575563881
 10
59.2584797395183
 20
202.16918517485007
 10
61.85357388408587
 20
195.41965312765842
 10
112.26858788715352
 20
169.9115369551693
 10
5.345707654437865
 20
158.62821612016936
 10
5.345707654437865
 20
219.39365299167395
 10
11.817203510557462
 20
199.133563677533
  0
LWPOLYLINE
  5
48
330
17
100
AcDbEntity
  8
zones
100
AcDbPolyline
 90
5
 70
0
 10
-167.17041077663123
 20
56.425994822086416
 10
-158.84948613538563
 20
141.30108233017685
 10
-115.26136806346604
 20
145.4478555989585
 10
-115.26136806346604
 20
65.31033408456192
 10
-167.17041077663123
 20
56.425994822086416
  0
LWPOLYLINE
  5
49
330
17
100
AcDbEntity
  8
zones
100
AcDbPolyline
 90
5
 70
0
 10
-115.26136806346604
 20
65.31033408456192
 10
-115.26136806346604
 20
145.4478555989585
 10
-65.25356153103705
 20
150.20536852894904
 10
-65.25356153103705
 20
73.86927287076351
 10
-115.26136806346604
 20
65.31033408456192
  0
LWPOLYLINE
  5
4A
330
17
100
AcDbEntity
  8
zones
100
AcDbPolyline
 90
5
 70
0
 10
-20.22897685042083
 20
154.48880063026743
 10
-5.07399645490105
 20
84.16912902017692
 10
-65.25356153103705
 20
73.86927287076351
 10
-65.25356153103705
 20
150.20536852894904
 10
-20.22897685042083
 20
154.48880063026743
  0
LWPOLYLINE
  5
4B
330
17
100
AcDbEntity
  8
zones
100
AcDbPolyline
 90
4
 70
0
 10
-167.17041077663123
 20
56.425994822086416
 10
-75.09900744735333
 20
72.18420458278061
 10
-75.09900744735333
 20
-4.138570515841426
 10
-167.17041077663123
 20
56.425994822086416
  0
LWPOLYLINE
  5
4C
330
17
100
AcDbEntity
  8
zones
100
AcDbPolyline
 90
6
 70
0
 10
-36.859993254567684
 20
78.72889039069963
 10
-36.859993254567684
 20
-23.5589665924593
 10
-40.69420327114309
 20
-26.770049293011837
 10
-75.09900744735333
 20
-4.138570515841426
 10
-75.09900744735333
 20
72.18420458278061
 10
-36.859993254567684
 20
78.72889039069963
  0
LWPOLYLINE
  5
4D
330
17
100
AcDbEntity
  8
zones
100
AcDbPolyline
 90
5
 70
0
 10
-5.07399645490105
 20
84.16912902017692
 10
9.693105100492875
 20
15.428425367929021
 10
-36.859993254567684
 20
-23.5589665924593
 10
-36.859993254567684
 20
78.72889039069963
 10
-5.07399645490105
 20
84.16912902017692
  0
LWPOLYLINE
  5
4E
330
17
100
AcDbEntity
  8
zones
100
AcDbPolyline
 90
5
 70
0
 10
-174.94645799966534
 20
-60.96248923679566
 10
-167.17041077663123
 20
56.425994822086416
 10
-138.9110338042534
 20
37.05783685626284
 10
-138.9110338042534
 20
-67.95234645578728
 10
-174.94645799966534
 20
-60.96248923679566
  0
LWPOLYLINE
  5
4F
330
17
100
AcDbEntity
  8
zones
100
AcDbPolyline
 90
5
 70
0
 10
-138.9110338042534
 20
-67.95234645578728
 10
-138.9110338042534
 20
37.05783685626284
 10
-101.02203958872927
 20
11.089818316926918
 10
-101.02203958872927
 20
-75.30174404569978
 10
-138.9110338042534
 20
-67.95234645578728
  0
LWPOLYLINE
  5
50
330
17
100
AcDbEntity
  8
zones
100
AcDbPolyline
 90
5
 70
0
 10
-32.77039268044591
 20
-35.68788241061865
 10
-75.37241861862522
 20
-80.2770479947023
 10
-101.02203958872927
 20
-75.30174404569978
 10
-101.02203958872927
 20
11.089818316926918
 10
-32.77039268044591
 20
-35.68788241061865
  0
LWPOLYLINE
  5
51
330
17
100
AcDbEntity
  8
zones
100
AcDbPolyline
 90
7
 70
0
 10
-224.5857143225633
 20
-186.53491989596498
 10
-230.93030392140741
 20
-122.8869438850855
 10
-186.84140909625668
 20
-117.81645523009597
 10
-174.94645799966534
 20
-60.96248923679566
 10
-164.59485003786253
 20
-62.97040958891736
 10
-164.59485003786253
 20
-187.10247816931627
 10
-224.5857143225633
 20
-186.53491989596498
  0
LWPOLYLINE
  5
52
330
17
100
AcDbEntity
  8
zones
100
AcDbPolyline
 90
5
 70
0
 10
-164.59485003786253
 20
-187.10247816931627
 10
-164.59485003786253
 20
-62.97040958891736
 10
-121.50030676514378
 20
-71.32953706229357
 10
-121.50030676514378
 20
-187.5101846579145
 10
-164.59485003786253
 20
-187.10247816931627
  0
LWPOLYLINE
  5
53
330
17
100
AcDbEntity
  8
zones
100
AcDbPolyline
 90
7
 70
0
 10
-75.37241861862522
 20
-80.2770479947023
 10
-87.25813450462998
 20
-132.79441184875245
 10
-56.54182445261946
 20
-155.58937181101166
 10
-78.84485775858471
 20
-187.91373698666874
 10
-121.50030676514378
 20
-187.5101846579145
 10
-121.50030676514378
 20
-71.32953706229357
 10
-75.37241861862522
 20
-80.2770479947023
  0
LWPOLYLINE
  5
54
330
17
100
AcDbEntity
  8
zones
100
AcDbPolyline
 90
5
 70
0
 10
-218.04718530369732
 20
-270.5204479907746
 10
-224.5857143225633
 20
-186.53491989596498
 10
-174.61437652994206
 20
-187.00768598352676
 10
-174.61437652994206
 20
-272.00117798356143
 10
-218.04718530369732
 20
-270.5204479907746
  0
LWPOLYLINE
  5
55
330
17
100
AcDbEntity
  8
zones
100
AcDbPolyline
 90
5
 70
0
 10
-174.61437652994206
 20
-272.00117798356143
 10
-174.61437652994206
 20
-187.00768598352676
 10
-128.53448236287701
 20
-187.44363611540393
 10
-128.53448236287701
 20
-273.5721535492537
 10
-174.61437652994206
 20
-272.00117798356143
  0
LWPOLYLINE
  5
56
330
17
100
AcDbEntity
  8
zones
100
AcDbPolyline
 90
5
 70
0
 10
-78.84485775858471
 20
-187.91373698666874
 10
-87.25813450462998
 20
-274.979364549183
 10
-128.53448236287701
 20
-273.5721535492537
 10
-128.53448236287701
 20
-187.44363611540393
 10
-78.84485775858471
 20
-187.91373698666874
  0
POINT
  5
57
330
17
100
AcDbEntity
  8
valves
100
AcDbPoint
 10
53.35204957124295
 20
38.87325790151115
 30
0.0
  0
POINT
  5
58
330
17
100
AcDbEntity
  8
valves
100
AcDbPoint
 10
-123.486018170449
 20
-12.81508599958876
 30
0.0
  0
POINT
  5
59
330
17
100
AcDbEntity
  8
valves
100
AcDbPoint
 10
-165.35661543865095
 20
-238.0937834828312
 30
0.0
  0
POINT
  5
5A
330
17
100
AcDbEntity
  8
valves
100
AcDbPoint
 10
17.771834644478194
 20
15.503874226869922
 30
0.0
  0
POINT
  5
5B
330
17
100
AcDbEntity
  8
valves
100
AcDbPoint
 10
52.01900684926112
 20
23.376727288042623
 30
0.0
  0
POINT
  5
5C
330
17
100
AcDbEntity
  8
valves
100
AcDbPoint
 10
101.98962591794488
 20
48.729495510166565
 30
0.0
  0
POINT
  5
5D
330
17
100
AcDbEntity
  8
valves
100
AcDbPoint
 10
6.784413429958837
 20
112.85352773116071
 30
0.0
  0
POINT
  5
5E
330
17
100
AcDbEntity
  8
valves
100
AcDbPoint
 10
48.23213388635723
 20
112.96726247982859
 30
0.0
  0
POINT
  5
5F
330
17
100
AcDbEntity
  8
valves
100
AcDbPoint
 10
95.04019875216994
 20
131.32955833744566
 30
0.0
  0
POINT
  5
60
330
17
100
AcDbEntity
  8
valves
100
AcDbPoint
 10
-101.06739702782946
 20
161.90095422746347
 30
0.0
  0
POINT
  5
61
330
17
100
AcDbEntity
  8
valves
100
AcDbPoint
 10
-19.935277409543126
 20
189.00816538110004
 30
0.0
  0
POINT
  5
62
330
17
100
AcDbEntity
  8
valves
100
AcDbPoint
 10
37.27100009972429
 20
196.01800561099228
 30
0.0
  0
POINT
  5
63
330
17
100
AcDbEntity
  8
valves
100
AcDbPoint
 10
-144.74260876311604
 20
92.98225233157402
 30
0.0
  0
POINT
  5
64
330
17
100
AcDbEntity
  8
valves
100
AcDbPoint
 10
-95.25824545051086
 20
100.02863303340096
 30
0.0
  0
POINT
  5
65
330
17
100
AcDbEntity
  8
valves
100
AcDbPoint
 10
-35.20781464354696
 20
123.44427433545279
 30
0.0
  0
POINT
  5
66
330
17
100
AcDbEntity
  8
valves
100
AcDbPoint
 10
-121.13470911195125
 20
45.22440592817304
 30
0.0
  0
POINT
  5
67
330
17
100
AcDbEntity
  8
valves
100
AcDbPoint
 10
-50.24536632156479
 20
29.195733160346208
 30
0.0
  0
POINT
  5
68
330
17
100
AcDbEntity
  8
valves
100
AcDbPoint
 10
-14.83497486373813
 20
47.78732144146266
 30
0.0
  0
POINT
  5
69
330
17
100
AcDbEntity
  8
valves
100
AcDbPoint
 10
-158.97707887694295
 20
-19.278698650837935
 30
0.0
  0
POINT
  5
6A
330
17
100
AcDbEntity
  8
valves
100
AcDbPoint
 10
-123.75543611807655
 20
-32.61175635681691
 30
0.0
  0
POINT
  5
6B
330
17
100
AcDbEntity
  8
valves
100
AcDbPoint
 10
-68.5914566313787
 20
-43.17294770862646
 30
0.0
  0
POINT
  5
6C
330
17
100
AcDbEntity
  8
valves
100
AcDbPoint
 10
-195.8684713912156
 20
-132.1155165573358
 30
0.0
  0
POINT
  5
6D
330
17
100
AcDbEntity
  8
valves
100
AcDbPoint
 10
-147.35703272879144
 20
-139.20301753002565
 30
0.0
  0
POINT
  5
6E
330
17
100
AcDbEntity
  8
valves
100
AcDbPoint
 10
-88.05575249758944
 20
-127.95590547954794
 30
0.0
  0
POINT
  5
6F
330
17
100
AcDbEntity
  8
valves
100
AcDbPoint
 10
-201.981767597952
 20
-237.3169359686044
 30
0.0
  0
POINT
  5
70
330
17
100
AcDbEntity
  8
valves
100
AcDbPoint
 10
-156.18241886313245
 20
-238.4051663235355
 30
0.0
  0
POINT
  5
71
330
17
100
AcDbEntity
  8
valves
100
AcDbPoint
 10
-100.4033629494779
 20
-222.36452563696156
 30
0.0
  0
LWPOLYLINE
  5
72
330
17
100
AcDbEntity
  8
pipes
100
AcDbPolyline
 90
2
 70
0
 10
7.277723159895289
 20
-2.3242954608703688
 10
53.35204957124295
 20
38.87325790151115
  0
LWPOLYLINE
  5
73
330
17
100
AcDbEntity
  8
pipes
100
AcDbPolyline
 90
10
 70
0
 10
7.277723159895289
 20
-2.3242954608703688
 10
9.53118047114752
 20
-0.6169222600295935
 10
15.630963737709862
 20
-8.667652582699409
 10
-0.05611203846849191
 20
12.036757902520636
 10
-47.934518656936504
 20
-26.149123398233506
 10
-39.75623988778111
 20
-35.3533471002
 10
-50.202298855090504
 20
-45.05853953931863
 10
-79.95919689384708
 20
-77.89248238745822
 10
-167.95377787706224
 20
-8.625220631525032
 10
-123.486018170449
 20
-12.81508599958876
  0
LWPOLYLINE
  5
74
330
17
100
AcDbEntity
  8
pipes
100
AcDbPolyline
 90
17
 70
0
 10
7.277723159895289
 20
-2.3242954608703688
 10
9.53118047114752
 20
-0.6169222600295935
 10
15.630963737709862
 20
-8.667652582699409
 10
-0.05611203846849191
 20
12.036757902520636
 10
-47.934518656936504
 20
-26.149123398233506
 10
-39.75623988778111
 20
-35.3533471002
 10
-50.202298855090504
 20
-45.05853953931863
 10
-79.95919689384708
 20
-77.89248238745822
 10
-92.85391112812248
 20
-134.86813330641294
 10
-63.9549191354265
 20
-156.31443868299232
 10
-74.07807166166722
 20
-167.45998723493085
 10
-83.65534733027984
 20
-186.3446622608262
 10
-86.86090202502673
 20
-206.05197150778136
 10
-91.86832416478448
 20
-269.81928709019155
 10
-213.45108464763302
 20
-265.6742353398462
 10
-166.35164345049733
 20
-267.27996974207105
 10
-165.35661543865095
 20
-238.0937834828312
  0
LWPOLYLINE
  5
75
330
17
100
AcDbEntity
  8
rows
100
AcDbPolyline
 90
2
 70
0
 10
-3.0739931910844245
 20
74.85913469631349
 10
-3.0739931910844245
 20
83.99105772504754
  0
LWPOLYLINE
  5
76
330
17
100
AcDbEntity
  8
rows
100
AcDbPolyline
 90
2
 70
0
 10
0.926013336466801
 20
2.438856629974651
 10
0.926013336466801
 20
6.7784824339870555
  0
LWPOLYLINE
  5
77
330
17
100
AcDbEntity
  8
rows
100
AcDbPolyline
 90
2
 70
0
 10
0.926013336466801
 20
56.23914604858661
 10
0.926013336466801
 20
83.63491513557891
  0
LWPOLYLINE
  5
78
330
17
100
AcDbEntity
  8
rows
100
AcDbPolyline
 90
2
 70
0
 10
4.92601986410005
 20
-2.8879465983867165
 10
4.92601986410005
 20
10.725039528579469
  0
LWPOLYLINE
  5
79
330
17
100
AcDbEntity
  8
rows
100
AcDbPolyline
 90
2
 70
0
 10
4.92601986410005
 20
37.61915740085974
 10
4.92601986410005
 20
83.27877254611025
  0
LWPOLYLINE
  5
7A
330
17
100
AcDbEntity
  8
rows
100
AcDbPolyline
 90
2
 70
0
 10
8.926026391651277
 20
-8.214749825957997
 10
8.926026391651277
 20
14.67159662317188
  0
LWPOLYLINE
  5
7B
330
17
100
AcDbEntity
  8
rows
100
AcDbPolyline
 90
2
 70
0
 10
8.926026391651277
 20
18.99916875313287
 10
8.926026391651277
 20
82.92262995664161
  0
LWPOLYLINE
  5
7C
330
17
100
AcDbEntity
  8
rows
100
AcDbPolyline
 90
2
 70
0
 10
12.926032919202502
 20
-13.541553054319365
 10
12.926032919202502
 20
82.56648736717297
  0
LWPOLYLINE
  5
7D
330
17
100
AcDbEntity
  8
rows
100
AcDbPolyline
 90
2
 70
0
 10
16.926039446835752
 20
-18.868356281890645
 10
16.926039446835752
 20
82.21034477770432
  0
LWPOLYLINE
  5
7E
330
17
100
AcDbEntity
  8
rows
100
AcDbPolyline
 90
2
 70
0
 10
20.926045974386977
 20
-24.19515951025201
 10
20.926045974386977
 20
81.85420218823567
  0
LWPOLYLINE
  5
7F
330
17
100
AcDbEntity
  8
rows
100
AcDbPolyline
 90
2
 70
0
 10
24.926052502020227
 20
-27.211266463234303
 10
24.926052502020227
 20
81.49805959797693
  0
LWPOLYLINE
  5
80
330
17
100
AcDbEntity
  8
rows
100
AcDbPolyline
 90
2
 70
0
 10
28.926059029571455
 20
-24.98141036985149
 10
28.926059029571455
 20
81.14191700850829
  0
LWPOLYLINE
  5
81
330
17
100
AcDbEntity
  8
rows
100
AcDbPolyline
 90
2
 70
0
 10
32.9260655572047
 20
-22.75155427567859
 10
32.9260655572047
 20
80.78577441903964
  0
LWPOLYLINE
  5
82
330
17
100
AcDbEntity
  8
rows
100
AcDbPolyline
 90
2
 70
0
 10
38.661881142705816
 20
-19.55404865950044
 10
38.661881142705816
 20
80.27508319885175
  0
LWPOLYLINE
  5
83
330
17
100
AcDbEntity
  8
rows
100
AcDbPolyline
 90
2
 70
0
 10
42.66189098505726
 20
-17.32419071810303
 10
42.66189098505726
 20
79.91894031389037
  0
LWPOLYLINE
  5
84
330
17
100
AcDbEntity
  8
rows
100
AcDbPolyline
 90
2
 70
0
 10
46.66190082732668
 20
-15.094332776705613
 10
46.66190082732668
 20
79.56279742892902
  0
LWPOLYLINE
  5
85
330
17
100
AcDbEntity
  8
rows
100
AcDbPolyline
 90
2
 70
0
 10
50.66191066967812
 20
-12.864474835308199
 10
50.66191066967812
 20
79.20665454396766
  0
LWPOLYLINE
  5
86
330
17
100
AcDbEntity
  8
rows
100
AcDbPolyline
 90
2
 70
0
 10
54.66192051194754
 20
-10.634616893910785
 10
54.66192051194754
 20
78.85051165979638
  0
LWPOLYLINE
  5
87
330
17
100
AcDbEntity
  8
rows
100
AcDbPolyline
 90
2
 70
0
 10
58.661930354298995
 20
-8.40475895251337
 10
58.661930354298995
 20
78.49436877483501
  0
LWPOLYLINE
  5
88
330
17
100
AcDbEntity
  8
rows
100
AcDbPolyline
 90
2
 70
0
 10
62.66194019656841
 20
-6.174901011115957
 10
62.66194019656841
 20
78.13822588987365
  0
LWPOLYLINE
  5
89
330
17
100
AcDbEntity
  8
rows
100
AcDbPolyline
 90
2
 70
0
 10
66.66195003883783
 20
-3.9450430697185426
 10
66.66195003883783
 20
77.78208300570239
  0
LWPOLYLINE
  5
8A
330
17
100
AcDbEntity
  8
rows
100
AcDbPolyline
 90
2
 70
0
 10
70.66195988118928
 20
-1.7151851283211286
 10
70.66195988118928
 20
77.42594012074102
  0
LWPOLYLINE
  5
8B
330
17
100
AcDbEntity
  8
rows
100
AcDbPolyline
 90
2
 70
0
 10
74.6619697234587
 20
0.5146728138663731
 10
74.6619697234587
 20
77.06979723577966
  0
LWPOLYLINE
  5
8C
330
17
100
AcDbEntity
  8
rows
100
AcDbPolyline
 90
2
 70
0
 10
77.05471304910206
 20
1.848538957797488
 10
77.05471304910206
 20
76.85675813230161
  0
LWPOLYLINE
  5
8D
330
17
100
AcDbEntity
  8
rows
100
AcDbPolyline
 90
2
 70
0
 10
81.05473356579594
 20
4.078402850133755
 10
81.05473356579594
 20
76.5006142976551
  0
LWPOLYLINE
  5
8E
330
17
100
AcDbEntity
  8
rows
100
AcDbPolyline
 90
2
 70
0
 10
85.05475408248982
 20
6.308266741679934
 10
85.05475408248982
 20
76.14447046221851
  0
LWPOLYLINE
  5
8F
330
17
100
AcDbEntity
  8
rows
100
AcDbPolyline
 90
2
 70
0
 10
89.05477459918372
 20
8.538130634016202
 10
89.05477459918372
 20
75.788326627572
  0
LWPOLYLINE
  5
90
330
17
100
AcDbEntity
  8
rows
100
AcDbPolyline
 90
2
 70
0
 10
93.0547951158776
 20
10.501332363006753
 10
93.0547951158776
 20
75.43218279213541
  0
LWPOLYLINE
  5
91
330
17
100
AcDbEntity
  8
rows
100
AcDbPolyline
 90
2
 70
0
 10
97.05481563265351
 20
12.433907683952755
 10
97.05481563265351
 20
75.07603895669881
  0
LWPOLYLINE
  5
92
330
17
100
AcDbEntity
  8
rows
100
AcDbPolyline
 90
2
 70
0
 10
101.0548361493474
 20
14.366483004898761
 10
101.0548361493474
 20
74.71989512205232
  0
LWPOLYLINE
  5
93
330
17
100
AcDbEntity
  8
rows
100
AcDbPolyline
 90
2
 70
0
 10
105.05485666604126
 20
16.299058325844765
 10
105.05485666604126
 20
74.36375128661572
  0
LWPOLYLINE
  5
94
330
17
100
AcDbEntity
  8
rows
100
AcDbPolyline
 90
2
 70
0
 10
109.05487718273514
 20
18.23163364679077
 10
109.05487718273514
 20
74.7279302192207
  0
LWPOLYLINE
  5
95
330
17
100
AcDbEntity
  8
rows
100
AcDbPolyline
 90
2
 70
0
 10
113.05489769942902
 20
20.164208967736773
 10
113.05489769942902
 20
75.30028943698412
  0
LWPOLYLINE
  5
96
330
17
100
AcDbEntity
  8
rows
100
AcDbPolyline
 90
2
 70
0
 10
117.05491821612293
 20
22.096784288682777
 10
117.05491821612293
 20
75.87264865474755
  0
LWPOLYLINE
  5
97
330
17
100
AcDbEntity
  8
rows
100
AcDbPolyline
 90
2
 70
0
 10
121.05493873281681
 20
24.02935960962878
 10
121.05493873281681
 20
76.44500787251097
  0
LWPOLYLINE
  5
98
330
17
100
AcDbEntity
  8
rows
100
AcDbPolyline
 90
2
 70
0
 10
125.05495924951069
 20
25.961934930574785
 10
125.05495924951069
 20
77.0173670902744
  0
LWPOLYLINE
  5
99
330
17
100
AcDbEntity
  8
rows
100
AcDbPolyline
 90
2
 70
0
 10
129.05497976620455
 20
30.83114622592691
 10
129.05497976620455
 20
77.58972630803784
  0
LWPOLYLINE
  5
9A
330
17
100
AcDbEntity
  8
rows
100
AcDbPolyline
 90
2
 70
0
 10
133.05500028298047
 20
71.71894603280893
 10
133.05500028298047
 20
78.16208552580126
  0
LWPOLYLINE
  5
9B
330
17
100
AcDbEntity
  8
rows
100
AcDbPolyline
 90
2
 70
0
 10
-18.228953092539328
 20
145.2086161503534
 10
-18.228953092539328
 20
154.72160369447417
  0
LWPOLYLINE
  5
9C
330
17
100
AcDbEntity
  8
rows
100
AcDbPolyline
 90
2
 70
0
 10
-14.228905576858352
 20
126.64824718973526
 10
-14.228905576858352
 20
155.18720982288767
  0
LWPOLYLINE
  5
9D
330
17
100
AcDbEntity
  8
rows
100
AcDbPolyline
 90
2
 70
0
 10
-10.228858061177379
 20
108.08787822911711
 10
-10.228858061177379
 20
155.6528159505111
  0
LWPOLYLINE
  5
9E
330
17
100
AcDbEntity
  8
rows
100
AcDbPolyline
 90
2
 70
0
 10
-6.2288105454964064
 20
89.52750926928904
 10
-6.2288105454964064
 20
156.1184220789246
  0
LWPOLYLINE
  5
9F
330
17
100
AcDbEntity
  8
rows
100
AcDbPolyline
 90
2
 70
0
 10
-2.2287630298154317
 20
83.91580223369517
 10
-2.2287630298154317
 20
156.58402820733812
  0
LWPOLYLINE
  5
A0
330
17
100
AcDbEntity
  8
rows
100
AcDbPolyline
 90
2
 70
0
 10
1.771284485865542
 20
83.55965599481247
 10
1.771284485865542
 20
157.0496343357516
  0
LWPOLYLINE
  5
A1
330
17
100
AcDbEntity
  8
rows
100
AcDbPolyline
 90
2
 70
0
 10
5.771332001546516
 20
83.20350975592979
 10
5.771332001546516
 20
157.5152404641651
  0
LWPOLYLINE
  5
A2
330
17
100
AcDbEntity
  8
rows
100
AcDbPolyline
 90
2
 70
0
 10
9.77137951722749
 20
82.847363516257
 10
9.77137951722749
 20
157.98084659178852
  0
LWPOLYLINE
  5
A3
330
17
100
AcDbEntity
  8
rows
100
AcDbPolyline
 90
2
 70
0
 10
13.771427032908464
 20
82.49121727737433
 10
13.771427032908464
 20
158.44645272020202
  0
LWPOLYLINE
  5
A4
330
17
100
AcDbEntity
  8
rows
100
AcDbPolyline
 90
2
 70
0
 10
17.77147454858944
 20
82.13507103849163
 10
17.77147454858944
 20
158.91205884861554
  0
LWPOLYLINE
  5
A5
330
17
100
AcDbEntity
  8
rows
100
AcDbPolyline
 90
2
 70
0
 10
21.77152206427041
 20
81.77892479960894
 10
21.77152206427041
 20
159.37766497702904
  0
LWPOLYLINE
  5
A6
330
17
100
AcDbEntity
  8
rows
100
AcDbPolyline
 90
2
 70
0
 10
25.77156957995139
 20
81.42277856072626
 10
25.77156957995139
 20
159.84327110544254
  0
LWPOLYLINE
  5
A7
330
17
100
AcDbEntity
  8
rows
100
AcDbPolyline
 90
2
 70
0
 10
29.77161709563236
 20
81.06663232184357
 10
29.77161709563236
 20
160.30887723306594
  0
LWPOLYLINE
  5
A8
330
17
100
AcDbEntity
  8
rows
100
AcDbPolyline
 90
2
 70
0
 10
34.14954223688241
 20
80.67684155814831
 10
34.14954223688241
 20
160.8184683733795
  0
LWPOLYLINE
  5
A9
330
17
100
AcDbEntity
  8
rows
100
AcDbPolyline
 90
2
 70
0
 10
38.149589800466075
 20
80.32069531531519
 10
38.149589800466075
 20
161.28407450732362
  0
LWPOLYLINE
  5
AA
330
17
100
AcDbEntity
  8
rows
100
AcDbPolyline
 90
2
 70
0
 10
42.14963736404974
 20
79.96454907169198
 10
42.14963736404974
 20
161.74968064126773
  0
LWPOLYLINE
  5
AB
330
17
100
AcDbEntity
  8
rows
100
AcDbPolyline
 90
2
 70
0
 10
46.14968492763339
 20
79.60840282885884
 10
46.14968492763339
 20
162.21528677521187
  0
LWPOLYLINE
  5
AC
330
17
100
AcDbEntity
  8
rows
100
AcDbPolyline
 90
2
 70
0
 10
50.14973249121705
 20
79.25225658523564
 10
50.14973249121705
 20
162.68089290915597
  0
LWPOLYLINE
  5
AD
330
17
100
AcDbEntity
  8
rows
100
AcDbPolyline
 90
2
 70
0
 10
54.14978005480071
 20
78.89611034240251
 10
54.14978005480071
 20
163.14649904310008
  0
LWPOLYLINE
  5
AE
330
17
100
AcDbEntity
  8
rows
100
AcDbPolyline
 90
2
 70
0
 10
58.14982761838437
 20
78.5399640987793
 10
58.14982761838437
 20
163.61210517625412
  0
LWPOLYLINE
  5
AF
330
17
100
AcDbEntity
  8
rows
100
AcDbPolyline
 90
2
 70
0
 10
62.149875181886
 20
78.18381785594617
 10
62.149875181886
 20
164.07771131019823
  0
LWPOLYLINE
  5
B0
330
17
100
AcDbEntity
  8
rows
100
AcDbPolyline
 90
2
 70
0
 10
66.14992274546967
 20
77.82767161232296
 10
66.14992274546967
 20
164.54331744414233
  0
LWPOLYLINE
  5
B1
330
17
100
AcDbEntity
  8
rows
100
AcDbPolyline
 90
2
 70
0
 10
70.14997030905332
 20
77.47152536948984
 10
70.14997030905332
 20
165.00892357808647
  0
LWPOLYLINE
  5
B2
330
17
100
AcDbEntity
  8
rows
100
AcDbPolyline
 90
2
 70
0
 10
74.35608468079165
 20
77.09703186466649
 10
74.35608468079165
 20
165.49851591918141
  0
LWPOLYLINE
  5
B3
330
17
100
AcDbEntity
  8
rows
100
AcDbPolyline
 90
2
 70
0
 10
78.35613997581953
 20
76.7408849328771
 10
78.35613997581953
 20
165.96412295303514
  0
LWPOLYLINE
  5
B4
330
17
100
AcDbEntity
  8
rows
100
AcDbPolyline
 90
2
 70
0
 10
82.35619527084744
 20
76.3847380010877
 10
82.35619527084744
 20
166.4297299868889
  0
LWPOLYLINE
  5
B5
330
17
100
AcDbEntity
  8
rows
100
AcDbPolyline
 90
2
 70
0
 10
86.35625056587533
 20
76.0285910692983
 10
86.35625056587533
 20
166.89533702074263
  0
LWPOLYLINE
  5
B6
330
17
100
AcDbEntity
  8
rows
100
AcDbPolyline
 90
2
 70
0
 10
90.35630586090322
 20
75.67244413750889
 10
90.35630586090322
 20
167.3609440545964
  0
LWPOLYLINE
  5
B7
330
17
100
AcDbEntity
  8
rows
100
AcDbPolyline
 90
2
 70
0
 10
94.35636115593111
 20
75.31629720650957
 10
94.35636115593111
 20
167.82655108845015
  0
LWPOLYLINE
  5
B8
330
17
100
AcDbEntity
  8
rows
100
AcDbPolyline
 90
2
 70
0
 10
98.356416450959
 20
74.96015027472016
 10
98.356416450959
 20
168.2921581223039
  0
LWPOLYLINE
  5
B9
330
17
100
AcDbEntity
  8
rows
100
AcDbPolyline
 90
2
 70
0
 10
102.3564717459869
 20
74.60400334293077
 10
102.3564717459869
 20
168.75776515615763
  0
LWPOLYLINE
  5
BA
330
17
100
AcDbEntity
  8
rows
100
AcDbPolyline
 90
2
 70
0
 10
106.35652704101479
 20
80.4122821138532
 10
106.35652704101479
 20
169.22337219001136
  0
LWPOLYLINE
  5
BB
330
17
100
AcDbEntity
  8
rows
100
AcDbPolyline
 90
2
 70
0
 10
110.35658233604268
 20
140.96679559865936
 10
110.35658233604268
 20
169.68897922307505
  0
LWPOLYLINE
  5
BC
330
17
100
AcDbEntity
  8
rows
100
AcDbPolyline
 90
2
 70
0
 10
-156.8494520517686
 20
141.51214123741929
 10
-156.8494520517686
 20
142.51608629318113
  0
LWPOLYLINE
  5
BD
330
17
100
AcDbEntity
  8
rows
100
AcDbPolyline
 90
2
 70
0
 10
-152.84938388445244
 20
141.9342590511141
 10
-152.84938388445244
 20
144.94609421918966
  0
LWPOLYLINE
  5
BE
330
17
100
AcDbEntity
  8
rows
100
AcDbPolyline
 90
2
 70
0
 10
-148.8493157172183
 20
142.356376865599
 10
-148.8493157172183
 20
147.37610214440812
  0
LWPOLYLINE
  5
BF
330
17
100
AcDbEntity
  8
rows
100
AcDbPolyline
 90
2
 70
0
 10
-144.84924754990215
 20
142.7784946800839
 10
-144.84924754990215
 20
149.80611007041668
  0
LWPOLYLINE
  5
C0
330
17
100
AcDbEntity
  8
rows
100
AcDbPolyline
 90
2
 70
0
 10
-140.849179382586
 20
143.20061249377872
 10
-140.849179382586
 20
152.23611799642524
  0
LWPOLYLINE
  5
C1
330
17
100
AcDbEntity
  8
rows
100
AcDbPolyline
 90
2
 70
0
 10
-136.84911121535188
 20
143.6227303082636
 10
-136.84911121535188
 20
154.66612592164367
  0
LWPOLYLINE
  5
C2
330
17
100
AcDbEntity
  8
rows
100
AcDbPolyline
 90
2
 70
0
 10
-132.84904304803572
 20
144.0448481227485
 10
-132.84904304803572
 20
157.0961338476522
  0
LWPOLYLINE
  5
C3
330
17
100
AcDbEntity
  8
rows
100
AcDbPolyline
 90
2
 70
0
 10
-128.84897488080156
 20
144.4669659364433
 10
-128.84897488080156
 20
159.52614177366075
  0
LWPOLYLINE
  5
C4
330
17
100
AcDbEntity
  8
rows
100
AcDbPolyline
 90
2
 70
0
 10
-124.84890671348543
 20
144.8890837509282
 10
-124.84890671348543
 20
161.9561496996693
  0
LWPOLYLINE
  5
C5
330
17
100
AcDbEntity
  8
rows
100
AcDbPolyline
 90
2
 70
0
 10
-120.84883854616928
 20
145.31120156462302
 10
-120.84883854616928
 20
164.38615762488777
  0
LWPOLYLINE
  5
C6
330
17
100
AcDbEntity
  8
rows
100
AcDbPolyline
 90
2
 70
0
 10
-116.84877037893514
 20
145.7333193791079
 10
-116.84877037893514
 20
166.8161655508963
  0
LWPOLYLINE
  5
C7
330
17
100
AcDbEntity
  8
rows
100
AcDbPolyline
 90
2
 70
0
 10
-112.848702211619
 20
146.1554371935928
 10
-112.848702211619
 20
169.24617347690486
  0
LWPOLYLINE
  5
C8
330
17
100
AcDbEntity
  8
rows
100
AcDbPolyline
 90
2
 70
0
 10
-108.84863404438487
 20
146.5775550072876
 10
-108.84863404438487
 20
171.67618140212332
  0
LWPOLYLINE
  5
C9
330
17
100
AcDbEntity
  8
rows
100
AcDbPolyline
 90
2
 70
0
 10
-104.84856587706871
 20
146.99967282177252
 10
-104.84856587706871
 20
174.10618932813185
  0
LWPOLYLINE
  5
CA
330
17
100
AcDbEntity
  8
rows
100
AcDbPolyline
 90
2
 70
0
 10
-100.84849770975256
 20
147.4217906362574
 10
-100.84849770975256
 20
176.5361972541404
  0
LWPOLYLINE
  5
CB
330
17
100
AcDbEntity
  8
rows
100
AcDbPolyline
 90
2
 70
0
 10
-96.84842954251842
 20
147.8439084499522
 10
-96.84842954251842
 20
178.96620517935884
  0
LWPOLYLINE
  5
CC
330
17
100
AcDbEntity
  8
rows
100
AcDbPolyline
 90
2
 70
0
 10
-92.84836137520227
 20
148.2660262644371
 10
-92.84836137520227
 20
181.3962131053674
  0
LWPOLYLINE
  5
CD
330
17
100
AcDbEntity
  8
rows
100
AcDbPolyline
 90
2
 70
0
 10
-88.84829320796814
 20
148.68814407813193
 10
-88.84829320796814
 20
183.82622103137592
  0
LWPOLYLINE
  5
CE
330
17
100
AcDbEntity
  8
rows
100
AcDbPolyline
 90
2
 70
0
 10
-84.84822504065198
 20
149.11026189261682
 10
-84.84822504065198
 20
186.25622895738448
  0
LWPOLYLINE
  5
CF
330
17
100
AcDbEntity
  8
rows
100
AcDbPolyline
 90
2
 70
0
 10
-80.84815687333582
 20
149.5323797071017
 10
-80.84815687333582
 20
188.68623688260294
  0
LWPOLYLINE
  5
D0
330
17
100
AcDbEntity
  8
rows
100
AcDbPolyline
 90
2
 70
0
 10
-76.84808870610169
 20
149.9544975207965
 10
-76.84808870610169
 20
191.1162448086115
  0
LWPOLYLINE
  5
D1
330
17
100
AcDbEntity
  8
rows
100
AcDbPolyline
 90
2
 70
0
 10
-72.84802053878553
 20
150.3766153352814
 10
-72.84802053878553
 20
193.54625273462003
  0
LWPOLYLINE
  5
D2
330
17
100
AcDbEntity
  8
rows
100
AcDbPolyline
 90
2
 70
0
 10
-68.84795237155141
 20
150.7987331497663
 10
-68.84795237155141
 20
195.9762606598385
  0
LWPOLYLINE
  5
D3
330
17
100
AcDbEntity
  8
rows
100
AcDbPolyline
 90
2
 70
0
 10
-64.84788420423526
 20
151.22085096346112
 10
-64.84788420423526
 20
198.40626858584704
  0
LWPOLYLINE
  5
D4
330
17
100
AcDbEntity
  8
rows
100
AcDbPolyline
 90
2
 70
0
 10
-60.847816036919106
 20
151.642968777946
 10
-60.847816036919106
 20
200.83627651185557
  0
LWPOLYLINE
  5
D5
330
17
100
AcDbEntity
  8
rows
100
AcDbPolyline
 90
2
 70
0
 10
-56.84774786968497
 20
152.06508659243093
 10
-56.84774786968497
 20
203.26628443786413
  0
LWPOLYLINE
  5
D6
330
17
100
AcDbEntity
  8
rows
100
AcDbPolyline
 90
2
 70
0
 10
-52.84767970236881
 20
152.48720440612573
 10
-52.84767970236881
 20
205.6962923630826
  0
LWPOLYLINE
  5
D7
330
17
100
AcDbEntity
  8
rows
100
AcDbPolyline
 90
2
 70
0
 10
-48.84761153513468
 20
152.90932222061062
 10
-48.84761153513468
 20
208.1263002890911
  0
LWPOLYLINE
  5
D8
330
17
100
AcDbEntity
  8
rows
100
AcDbPolyline
 90
2
 70
0
 10
-44.847543367818524
 20
153.33144003430542
 10
-44.847543367818524
 20
210.55630821509965
  0
LWPOLYLINE
  5
D9
330
17
100
AcDbEntity
  8
rows
100
AcDbPolyline
 90
2
 70
0
 10
-41.285268129756645
 20
153.70735858751166
 10
-41.285268129756645
 20
212.72036060118566
  0
LWPOLYLINE
  5
DA
330
17
100
AcDbEntity
  8
rows
100
AcDbPolyline
 90
2
 70
0
 10
-37.28518854864136
 20
154.1294776060899
 10
-37.28518854864136
 20
215.15037546021176
  0
LWPOLYLINE
  5
DB
330
17
100
AcDbEntity
  8
rows
100
AcDbPolyline
 90
2
 70
0
 10
-33.28510896760809
 20
154.5515966246681
 10
-33.28510896760809
 20
217.58039032002802
  0
LWPOLYLINE
  5
DC
330
17
100
AcDbEntity
  8
rows
100
AcDbPolyline
 90
2
 70
0
 10
-29.285029386574827
 20
154.9737156432463
 10
-29.285029386574827
 20
220.0104051798442
  0
LWPOLYLINE
  5
DD
330
17
100
AcDbEntity
  8
rows
100
AcDbPolyline
 90
2
 70
0
 10
-25.28494980545954
 20
155.3958346626146
 10
-25.28494980545954
 20
222.44042003887031
  0
LWPOLYLINE
  5
DE
330
17
100
AcDbEntity
  8
rows
100
AcDbPolyline
 90
2
 70
0
 10
-21.284870224426275
 20
155.8179536811928
 10
-21.284870224426275
 20
224.87043489868657
  0
LWPOLYLINE
  5
DF
330
17
100
AcDbEntity
  8
rows
100
AcDbPolyline
 90
2
 70
0
 10
-17.284790643310988
 20
156.240072699771
 10
-17.284790643310988
 20
227.30044975850277
  0
LWPOLYLINE
  5
E0
330
17
100
AcDbEntity
  8
rows
100
AcDbPolyline
 90
2
 70
0
 10
-13.284711062277724
 20
156.6621917183492
 10
-13.284711062277724
 20
229.7304646175289
  0
LWPOLYLINE
  5
E1
330
17
100
AcDbEntity
  8
rows
100
AcDbPolyline
 90
2
 70
0
 10
-9.284631481162435
 20
157.0843107369274
 10
-9.284631481162435
 20
232.1604794773451
  0
LWPOLYLINE
  5
E2
330
17
100
AcDbEntity
  8
rows
100
AcDbPolyline
 90
2
 70
0
 10
-5.2845519001291725
 20
157.50642975550562
 10
-5.2845519001291725
 20
234.59049433716135
  0
LWPOLYLINE
  5
E3
330
17
100
AcDbEntity
  8
rows
100
AcDbPolyline
 90
2
 70
0
 10
-1.284472319095909
 20
157.92854877408382
 10
-1.284472319095909
 20
237.02050919618745
  0
LWPOLYLINE
  5
E4
330
17
100
AcDbEntity
  8
rows
100
AcDbPolyline
 90
2
 70
0
 10
2.7156072620193794
 20
158.35066779266202
 10
2.7156072620193794
 20
227.62761775684626
  0
LWPOLYLINE
  5
E5
330
17
100
AcDbEntity
  8
rows
100
AcDbPolyline
 90
2
 70
0
 10
7.345748920750932
 20
158.8392757851057
 10
7.345748920750932
 20
213.13219264451087
  0
LWPOLYLINE
  5
E6
330
17
100
AcDbEntity
  8
rows
100
AcDbPolyline
 90
2
 70
0
 10
11.345831453459091
 20
159.26139511576847
 10
11.345831453459091
 20
200.60927195097477
  0
LWPOLYLINE
  5
E7
330
17
100
AcDbEntity
  8
rows
100
AcDbPolyline
 90
2
 70
0
 10
15.345913986085227
 20
159.68351444564115
 10
15.345913986085227
 20
201.89901387986407
  0
LWPOLYLINE
  5
E8
330
17
100
AcDbEntity
  8
rows
100
AcDbPolyline
 90
2
 70
0
 10
19.34599651871136
 20
160.1056337755138
 10
19.34599651871136
 20
205.03387833666397
  0
LWPOLYLINE
  5
E9
330
17
100
AcDbEntity
  8
rows
100
AcDbPolyline
 90
2
 70
0
 10
23.34607905141952
 20
160.52775310617656
 10
23.34607905141952
 20
208.16874279346388
  0
LWPOLYLINE
  5
EA
330
17
100
AcDbEntity
  8
rows
100
AcDbPolyline
 90
2
 70
0
 10
27.346161584045653
 20
160.94987243604922
 10
27.346161584045653
 20
209.50610147956857
  0
LWPOLYLINE
  5
EB
330
17
100
AcDbEntity
  8
rows
100
AcDbPolyline
 90
2
 70
0
 10
31.346244116753812
 20
161.3719917659219
 10
31.346244116753812
 20
209.92342711408168
  0
LWPOLYLINE
  5
EC
330
17
100
AcDbEntity
  8
rows
100
AcDbPolyline
 90
2
 70
0
 10
35.346326649379954
 20
161.79411109658466
 10
35.346326649379954
 20
210.3407527493849
  0
LWPOLYLINE
  5
ED
330
17
100
AcDbEntity
  8
rows
100
AcDbPolyline
 90
2
 70
0
 10
39.346409182006084
 20
162.21623042645734
 10
39.346409182006084
 20
210.75807838389798
  0
LWPOLYLINE
  5
EE
330
17
100
AcDbEntity
  8
rows
100
AcDbPolyline
 90
2
 70
0
 10
43.34649171471424
 20
162.63834975633003
 10
43.34649171471424
 20
210.96881476321207
  0
LWPOLYLINE
  5
EF
330
17
100
AcDbEntity
  8
rows
100
AcDbPolyline
 90
2
 70
0
 10
47.34657424734038
 20
163.06046908699278
 10
47.34657424734038
 20
208.75669365353164
  0
LWPOLYLINE
  5
F0
330
17
100
AcDbEntity
  8
rows
100
AcDbPolyline
 90
2
 70
0
 10
51.34665678004854
 20
163.48258841686544
 10
51.34665678004854
 20
206.5445725438512
  0
LWPOLYLINE
  5
F1
330
17
100
AcDbEntity
  8
rows
100
AcDbPolyline
 90
2
 70
0
 10
55.34673931267467
 20
163.9047077475282
 10
55.34673931267467
 20
204.33245143338067
  0
LWPOLYLINE
  5
F2
330
17
100
AcDbEntity
  8
rows
100
AcDbPolyline
 90
2
 70
0
 10
59.3468218453008
 20
164.32682707740085
 10
59.3468218453008
 20
201.93941783688098
  0
LWPOLYLINE
  5
F3
330
17
100
AcDbEntity
  8
rows
100
AcDbPolyline
 90
2
 70
0
 10
63.346904378008965
 20
164.74894640727354
 10
63.346904378008965
 20
194.66408361167564
  0
LWPOLYLINE
  5
F4
330
17
100
AcDbEntity
  8
rows
100
AcDbPolyline
 90
2
 70
0
 10
67.3469869106351
 20
165.1710657379363
 10
67.3469869106351
 20
192.6401910874196
  0
LWPOLYLINE
  5
F5
330
17
100
AcDbEntity
  8
rows
100
AcDbPolyline
 90
2
 70
0
 10
71.34706944334326
 20
165.59318506780897
 10
71.34706944334326
 20
190.61629856395365
  0
LWPOLYLINE
  5
F6
330
17
100
AcDbEntity
  8
rows
100
AcDbPolyline
 90
2
 70
0
 10
75.34715197596938
 20
166.01530439768163
 10
75.34715197596938
 20
188.5924060396976
  0
LWPOLYLINE
  5
F7
330
17
100
AcDbEntity
  8
rows
100
AcDbPolyline
 90
2
 70
0
 10
79.34723450859553
 20
166.43742372834438
 10
79.34723450859553
 20
186.5685135154416
  0
LWPOLYLINE
  5
F8
330
17
100
AcDbEntity
  8
rows
100
AcDbPolyline
 90
2
 70
0
 10
83.3473170413037
 20
166.85954305821704
 10
83.3473170413037
 20
184.54462099118555
  0
LWPOLYLINE
  5
F9
330
17
100
AcDbEntity
  8
rows
100
AcDbPolyline
 90
2
 70
0
 10
87.34739957392982
 20
167.28166238808973
 10
87.34739957392982
 20
182.52072846692954
  0
LWPOLYLINE
  5
FA
330
17
100
AcDbEntity
  8
rows
100
AcDbPolyline
 90
2
 70
0
 10
91.34748210663798
 20
167.70378171875248
 10
91.34748210663798
 20
180.4968359434636
  0
LWPOLYLINE
  5
FB
330
17
100
AcDbEntity
  8
rows
100
AcDbPolyline
 90
2
 70
0
 10
95.3475646392641
 20
168.12590104862517
 10
95.3475646392641
 20
178.47294341920755
  0
LWPOLYLINE
  5
FC
330
17
100
AcDbEntity
  8
rows
100
AcDbPolyline
 90
2
 70
0
 10
99.34764717189026
 20
168.54802037928792
 10
99.34764717189026
 20
176.44905089495154
  0
LWPOLYLINE
  5
FD
330
17
100
AcDbEntity
  8
rows
100
AcDbPolyline
 90
2
 70
0
 10
103.34772970459842
 20
168.9701397091606
 10
103.34772970459842
 20
174.4251583706955
  0
LWPOLYLINE
  5
FE
330
17
100
AcDbEntity
  8
rows
100
AcDbPolyline
 90
2
 70
0
 10
107.34781223722456
 20
169.39225903903326
 10
107.34781223722456
 20
172.40126584643946
  0
LWPOLYLINE
  5
FF
330
17
100
AcDbEntity
  8
rows
100
AcDbPolyline
 90
2
 70
0
 10
111.34789476993271
 20
169.81437836969602
 10
111.34789476993271
 20
170.3773733229735
  0
LWPOLYLINE
  5
100
330
17
100
AcDbEntity
  8
rows
100
AcDbPolyline
 90
2
 70
0
 10
-165.17039120219627
 20
56.7683022798712
 10
-165.17039120219627
 20
76.82659255857791
  0
LWPOLYLINE
  5
101
330
17
100
AcDbEntity
  8
rows
100
AcDbPolyline
 90
2
 70
0
 10
-161.17035205324427
 20
57.45291719465069
 10
-161.17035205324427
 20
117.6277880315609
  0
LWPOLYLINE
  5
102
330
17
100
AcDbEntity
  8
rows
100
AcDbPolyline
 90
2
 70
0
 10
-157.17031290429227
 20
58.13753210943019
 10
-157.17031290429227
 20
141.46083115547086
  0
LWPOLYLINE
  5
103
330
17
100
AcDbEntity
  8
rows
100
AcDbPolyline
 90
2
 70
0
 10
-153.17027375534033
 20
58.82214702420968
 10
-153.17027375534033
 20
141.84137650042808
  0
LWPOLYLINE
  5
104
330
17
100
AcDbEntity
  8
rows
100
AcDbPolyline
 90
2
 70
0
 10
-149.17023460638833
 20
59.506761938989165
 10
-149.17023460638833
 20
142.22192184538534
  0
LWPOLYLINE
  5
105
330
17
100
AcDbEntity
  8
rows
100
AcDbPolyline
 90
2
 70
0
 10
-145.17019545743636
 20
60.19137685455875
 10
-145.17019545743636
 20
142.60246718955247
  0
LWPOLYLINE
  5
106
330
17
100
AcDbEntity
  8
rows
100
AcDbPolyline
 90
2
 70
0
 10
-141.1701563085664
 20
60.87599176933825
 10
-141.1701563085664
 20
142.98301253450973
  0
LWPOLYLINE
  5
107
330
17
100
AcDbEntity
  8
rows
100
AcDbPolyline
 90
2
 70
0
 10
-137.17011715961442
 20
61.56060668411774
 10
-137.17011715961442
 20
143.36355787946695
  0
LWPOLYLINE
  5
108
330
17
100
AcDbEntity
  8
rows
100
AcDbPolyline
 90
2
 70
0
 10
-133.17007801066245
 20
62.245221598897224
 10
-133.17007801066245
 20
143.74410322363408
  0
LWPOLYLINE
  5
109
330
17
100
AcDbEntity
  8
rows
100
AcDbPolyline
 90
2
 70
0
 10
-129.17003886171045
 20
62.92983651446681
 10
-129.17003886171045
 20
144.12464856859134
  0
LWPOLYLINE
  5
10A
330
17
100
AcDbEntity
  8
rows
100
AcDbPolyline
 90
2
 70
0
 10
-125.16999971275847
 20
63.6144514292463
 10
-125.16999971275847
 20
144.50519391354857
  0
LWPOLYLINE
  5
10B
330
17
100
AcDbEntity
  8
rows
100
AcDbPolyline
 90
2
 70
0
 10
-121.16996056380648
 20
64.2990663440258
 10
-121.16996056380648
 20
144.88573925771573
  0
LWPOLYLINE
  5
10C
330
17
100
AcDbEntity
  8
rows
100
AcDbPolyline
 90
2
 70
0
 10
-117.16992141493652
 20
64.98368125880529
 10
-117.16992141493652
 20
145.26628460267295
  0
LWPOLYLINE
  5
10D
330
17
100
AcDbEntity
  8
rows
100
AcDbPolyline
 90
2
 70
0
 10
-113.26134700560628
 20
65.65264179596478
 10
-113.26134700560628
 20
145.63812841246775
  0
LWPOLYLINE
  5
10E
330
17
100
AcDbEntity
  8
rows
100
AcDbPolyline
 90
2
 70
0
 10
-109.26130488980476
 20
66.33725721877052
 10
-109.26130488980476
 20
146.0186740394862
  0
LWPOLYLINE
  5
10F
330
17
100
AcDbEntity
  8
rows
100
AcDbPolyline
 90
2
 70
0
 10
-105.26126277400321
 20
67.02187264157627
 10
-105.26126277400321
 20
146.39921966650468
  0
LWPOLYLINE
  5
110
330
17
100
AcDbEntity
  8
rows
100
AcDbPolyline
 90
2
 70
0
 10
-101.26122065820171
 20
67.706488064382
 10
-101.26122065820171
 20
146.77976529273306
  0
LWPOLYLINE
  5
111
330
17
100
AcDbEntity
  8
rows
100
AcDbPolyline
 90
2
 70
0
 10
-97.26117854240017
 20
68.39110348718773
 10
-97.26117854240017
 20
147.1603109197515
  0
LWPOLYLINE
  5
112
330
17
100
AcDbEntity
  8
rows
100
AcDbPolyline
 90
2
 70
0
 10
-93.26113642659863
 20
69.07571890999348
 10
-93.26113642659863
 20
147.54085654677
  0
LWPOLYLINE
  5
113
330
17
100
AcDbEntity
  8
rows
100
AcDbPolyline
 90
2
 70
0
 10
-89.26109431087913
 20
69.76033433279922
 10
-89.26109431087913
 20
147.92140217378844
  0
LWPOLYLINE
  5
114
330
17
100
AcDbEntity
  8
rows
100
AcDbPolyline
 90
2
 70
0
 10
-85.2610521950776
 20
70.44494975560495
 10
-85.2610521950776
 20
148.30194780080691
  0
LWPOLYLINE
  5
115
330
17
100
AcDbEntity
  8
rows
100
AcDbPolyline
 90
2
 70
0
 10
-81.26101007927608
 20
71.1295651784107
 10
-81.26101007927608
 20
148.68249342782536
  0
LWPOLYLINE
  5
116
330
17
100
AcDbEntity
  8
rows
100
AcDbPolyline
 90
2
 70
0
 10
-77.26096796347453
 20
71.81418060121644
 10
-77.26096796347453
 20
149.06303905405375
  0
LWPOLYLINE
  5
117
330
17
100
AcDbEntity
  8
rows
100
AcDbPolyline
 90
2
 70
0
 10
-73.26092584767301
 20
72.49879602402217
 10
-73.26092584767301
 20
149.44358468107222
  0
LWPOLYLINE
  5
118
330
17
100
AcDbEntity
  8
rows
100
AcDbPolyline
 90
2
 70
0
 10
-69.26088373187147
 20
73.18341144682792
 10
-69.26088373187147
 20
149.82413030809067
  0
LWPOLYLINE
  5
119
330
17
100
AcDbEntity
  8
rows
100
AcDbPolyline
 90
2
 70
0
 10
-65.26084161606994
 20
73.86802686963365
 10
-65.26084161606994
 20
150.20467593510915
  0
LWPOLYLINE
  5
11A
330
17
100
AcDbEntity
  8
rows
100
AcDbPolyline
 90
2
 70
0
 10
-63.25353554354801
 20
74.2115814259798
 10
-63.25353554354801
 20
150.39564181177022
  0
LWPOLYLINE
  5
11B
330
17
100
AcDbEntity
  8
rows
100
AcDbPolyline
 90
2
 70
0
 10
-59.25348356865198
 20
74.8961985356223
 10
-59.25348356865198
 20
150.7761883766225
  0
LWPOLYLINE
  5
11C
330
17
100
AcDbEntity
  8
rows
100
AcDbPolyline
 90
2
 70
0
 10
-55.25343159375595
 20
75.58081564605489
 10
-55.25343159375595
 20
151.1567349414748
  0
LWPOLYLINE
  5
11D
330
17
100
AcDbEntity
  8
rows
100
AcDbPolyline
 90
2
 70
0
 10
-51.2533796188599
 20
76.26543275648747
 10
-51.2533796188599
 20
151.5372815063271
  0
LWPOLYLINE
  5
11E
330
17
100
AcDbEntity
  8
rows
100
AcDbPolyline
 90
2
 70
0
 10
-47.253327643881846
 20
76.95004986612996
 10
-47.253327643881846
 20
151.91782807117943
  0
LWPOLYLINE
  5
11F
330
17
100
AcDbEntity
  8
rows
100
AcDbPolyline
 90
2
 70
0
 10
-43.2532756689858
 20
77.63466697656254
 10
-43.2532756689858
 20
152.2983746360317
  0
LWPOLYLINE
  5
120
330
17
100
AcDbEntity
  8
rows
100
AcDbPolyline
 90
2
 70
0
 10
-39.25322369408977
 20
78.31928408699513
 10
-39.25322369408977
 20
152.67892120088402
  0
LWPOLYLINE
  5
121
330
17
100
AcDbEntity
  8
rows
100
AcDbPolyline
 90
2
 70
0
 10
-35.253171719111705
 20
79.00390119663761
 10
-35.253171719111705
 20
153.0594677657363
  0
LWPOLYLINE
  5
122
330
17
100
AcDbEntity
  8
rows
100
AcDbPolyline
 90
2
 70
0
 10
-31.253119744215674
 20
79.68851830707021
 10
-31.253119744215674
 20
153.44001433058858
  0
LWPOLYLINE
  5
123
330
17
100
AcDbEntity
  8
rows
100
AcDbPolyline
 90
2
 70
0
 10
-27.25306776931963
 20
80.3731354167127
 10
-27.25306776931963
 20
153.8205608954409
  0
LWPOLYLINE
  5
124
330
17
100
AcDbEntity
  8
rows
100
AcDbPolyline
 90
2
 70
0
 10
-23.253015794423593
 20
81.05775252714528
 10
-23.253015794423593
 20
154.20110746029317
  0
LWPOLYLINE
  5
125
330
17
100
AcDbEntity
  8
rows
100
AcDbPolyline
 90
2
 70
0
 10
-19.252963819445533
 20
81.74236963757787
 10
-19.252963819445533
 20
149.96006393592705
  0
LWPOLYLINE
  5
126
330
17
100
AcDbEntity
  8
rows
100
AcDbPolyline
 90
2
 70
0
 10
-15.252911844549493
 20
82.42698674722035
 10
-15.252911844549493
 20
131.39967428449813
  0
LWPOLYLINE
  5
127
330
17
100
AcDbEntity
  8
rows
100
AcDbPolyline
 90
2
 70
0
 10
-11.252859869653454
 20
83.11160385765294
 10
-11.252859869653454
 20
112.83928463306923
  0
LWPOLYLINE
  5
128
330
17
100
AcDbEntity
  8
rows
100
AcDbPolyline
 90
2
 70
0
 10
-7.252807894757418
 20
83.79622096808554
 10
-7.252807894757418
 20
94.2788949816403
  0
LWPOLYLINE
  5
129
330
17
100
AcDbEntity
  8
rows
100
AcDbPolyline
 90
2
 70
0
 10
-165.17040125618252
 20
55.11038864180034
 10
-165.17040125618252
 20
56.768300559060684
  0
LWPOLYLINE
  5
12A
330
17
100
AcDbEntity
  8
rows
100
AcDbPolyline
 90
2
 70
0
 10
-161.17038221520303
 20
52.47917628043813
 10
-161.17038221520303
 20
57.45291203221914
  0
LWPOLYLINE
  5
12B
330
17
100
AcDbEntity
  8
rows
100
AcDbPolyline
 90
2
 70
0
 10
-157.1703631743056
 20
49.8479639190759
 10
-157.1703631743056
 20
58.137523505377594
  0
LWPOLYLINE
  5
12C
330
17
100
AcDbEntity
  8
rows
100
AcDbPolyline
 90
2
 70
0
 10
-153.17034413340815
 20
47.21675155771369
 10
-153.17034413340815
 20
58.82213497932614
  0
LWPOLYLINE
  5
12D
330
17
100
AcDbEntity
  8
rows
100
AcDbPolyline
 90
2
 70
0
 10
-149.17032509242867
 20
44.585539196351476
 10
-149.17032509242867
 20
59.50674645248459
  0
LWPOLYLINE
  5
12E
330
17
100
AcDbEntity
  8
rows
100
AcDbPolyline
 90
2
 70
0
 10
-145.17030605153124
 20
41.95432683498926
 10
-145.17030605153124
 20
60.19135792564305
  0
LWPOLYLINE
  5
12F
330
17
100
AcDbEntity
  8
rows
100
AcDbPolyline
 90
2
 70
0
 10
-141.17028701055176
 20
39.323114473627044
 10
-141.17028701055176
 20
60.8759693995916
  0
LWPOLYLINE
  5
130
330
17
100
AcDbEntity
  8
rows
100
AcDbPolyline
 90
2
 70
0
 10
-137.1702679696543
 20
36.69190211305491
 10
-137.1702679696543
 20
61.56058087275005
  0
LWPOLYLINE
  5
131
330
17
100
AcDbEntity
  8
rows
100
AcDbPolyline
 90
2
 70
0
 10
-133.17024892875685
 20
34.0606897516927
 10
-133.17024892875685
 20
62.245192345908514
  0
LWPOLYLINE
  5
132
330
17
100
AcDbEntity
  8
rows
100
AcDbPolyline
 90
2
 70
0
 10
-129.1702298877774
 20
31.42947739033048
 10
-129.1702298877774
 20
62.92980381985706
  0
LWPOLYLINE
  5
133
330
17
100
AcDbEntity
  8
rows
100
AcDbPolyline
 90
2
 70
0
 10
-125.17021084687994
 20
28.79826502896826
 10
-125.17021084687994
 20
63.61441529301551
  0
LWPOLYLINE
  5
134
330
17
100
AcDbEntity
  8
rows
100
AcDbPolyline
 90
2
 70
0
 10
-121.17019180590046
 20
26.167052667606047
 10
-121.17019180590046
 20
64.29902676617397
  0
LWPOLYLINE
  5
135
330
17
100
AcDbEntity
  8
rows
100
AcDbPolyline
 90
2
 70
0
 10
-117.17017276500303
 20
23.53584030624383
 10
-117.17017276500303
 20
64.98363824012252
  0
LWPOLYLINE
  5
136
330
17
100
AcDbEntity
  8
rows
100
AcDbPolyline
 90
2
 70
0
 10
-113.17015372402354
 20
20.904627944881614
 10
-113.17015372402354
 20
65.66824971328097
  0
LWPOLYLINE
  5
137
330
17
100
AcDbEntity
  8
rows
100
AcDbPolyline
 90
2
 70
0
 10
-109.17013468312611
 20
18.273415584309483
 10
-109.17013468312611
 20
66.35286118643943
  0
LWPOLYLINE
  5
138
330
17
100
AcDbEntity
  8
rows
100
AcDbPolyline
 90
2
 70
0
 10
-105.17011564222867
 20
15.642203222947268
 10
-105.17011564222867
 20
67.03747266038796
  0
LWPOLYLINE
  5
139
330
17
100
AcDbEntity
  8
rows
100
AcDbPolyline
 90
2
 70
0
 10
-101.1700966012492
 20
13.010990861585048
 10
-101.1700966012492
 20
67.72208413354643
  0
LWPOLYLINE
  5
13A
330
17
100
AcDbEntity
  8
rows
100
AcDbPolyline
 90
2
 70
0
 10
-97.17007756035174
 20
10.379778500222834
 10
-97.17007756035174
 20
68.40669560670489
  0
LWPOLYLINE
  5
13B
330
17
100
AcDbEntity
  8
rows
100
AcDbPolyline
 90
2
 70
0
 10
-93.17005851937226
 20
7.748566138860616
 10
-93.17005851937226
 20
69.09130708065342
  0
LWPOLYLINE
  5
13C
330
17
100
AcDbEntity
  8
rows
100
AcDbPolyline
 90
2
 70
0
 10
-89.17003947847482
 20
5.1173537774983995
 10
-89.17003947847482
 20
69.77591855381189
  0
LWPOLYLINE
  5
13D
330
17
100
AcDbEntity
  8
rows
100
AcDbPolyline
 90
2
 70
0
 10
-85.17002043757736
 20
2.486141416136183
 10
-85.17002043757736
 20
70.46053002697035
  0
LWPOLYLINE
  5
13E
330
17
100
AcDbEntity
  8
rows
100
AcDbPolyline
 90
2
 70
0
 10
-81.1700013965979
 20
-0.14507094443594637
 10
-81.1700013965979
 20
71.14514150091888
  0
LWPOLYLINE
  5
13F
330
17
100
AcDbEntity
  8
rows
100
AcDbPolyline
 90
2
 70
0
 10
-77.16998235570045
 20
-2.776283305798163
 10
-77.16998235570045
 20
71.82975297407735
  0
LWPOLYLINE
  5
140
330
17
100
AcDbEntity
  8
rows
100
AcDbPolyline
 90
2
 70
0
 10
-73.09900130117305
 20
-5.454174476771777
 10
-73.09900130117305
 20
72.52650974220094
  0
LWPOLYLINE
  5
141
330
17
100
AcDbEntity
  8
rows
100
AcDbPolyline
 90
2
 70
0
 10
-69.09898900889453
 20
-8.085382398632477
 10
-69.09898900889453
 20
73.21112006025152
  0
LWPOLYLINE
  5
142
330
17
100
AcDbEntity
  8
rows
100
AcDbPolyline
 90
2
 70
0
 10
-65.09897671661601
 20
-10.71659032049318
 10
-65.09897671661601
 20
73.89573037909217
  0
LWPOLYLINE
  5
143
330
17
100
AcDbEntity
  8
rows
100
AcDbPolyline
 90
2
 70
0
 10
-61.098964424337495
 20
-13.34779824235388
 10
-61.098964424337495
 20
74.58034069714274
  0
LWPOLYLINE
  5
144
330
17
100
AcDbEntity
  8
rows
100
AcDbPolyline
 90
2
 70
0
 10
-57.098952131976944
 20
-15.97900616500467
 10
-57.098952131976944
 20
75.2649510151933
  0
LWPOLYLINE
  5
145
330
17
100
AcDbEntity
  8
rows
100
AcDbPolyline
 90
2
 70
0
 10
-53.09893983969842
 20
-18.61021408686537
 10
-53.09893983969842
 20
75.94956133403397
  0
LWPOLYLINE
  5
146
330
17
100
AcDbEntity
  8
rows
100
AcDbPolyline
 90
2
 70
0
 10
-49.09892754741991
 20
-21.241422008726076
 10
-49.09892754741991
 20
76.63417165208455
  0
LWPOLYLINE
  5
147
330
17
100
AcDbEntity
  8
rows
100
AcDbPolyline
 90
2
 70
0
 10
-45.09891525514139
 20
-23.872629930586776
 10
-45.09891525514139
 20
77.3187819709252
  0
LWPOLYLINE
  5
148
330
17
100
AcDbEntity
  8
rows
100
AcDbPolyline
 90
2
 70
0
 10
-41.09890296278083
 20
-26.503837852447475
 10
-41.09890296278083
 20
78.00339228897576
  0
LWPOLYLINE
  5
149
330
17
100
AcDbEntity
  8
rows
100
AcDbPolyline
 90
2
 70
0
 10
-37.09889067050232
 20
-23.759038929643765
 10
-37.09889067050232
 20
78.68800260702633
  0
LWPOLYLINE
  5
14A
330
17
100
AcDbEntity
  8
rows
100
AcDbPolyline
 90
2
 70
0
 10
-34.85998319455754
 20
-21.883993735662763
 10
-34.85998319455754
 20
79.07119622011413
  0
LWPOLYLINE
  5
14B
330
17
100
AcDbEntity
  8
rows
100
AcDbPolyline
 90
2
 70
0
 10
-30.85996307453727
 20
-18.534048022859775
 10
-30.85996307453727
 20
79.75580787815308
  0
LWPOLYLINE
  5
14C
330
17
100
AcDbEntity
  8
rows
100
AcDbPolyline
 90
2
 70
0
 10
-26.859942954516995
 20
-15.184102309266699
 10
-26.859942954516995
 20
80.440419536192
  0
LWPOLYLINE
  5
14D
330
17
100
AcDbEntity
  8
rows
100
AcDbPolyline
 90
2
 70
0
 10
-22.859922834496718
 20
-11.83415659646371
 10
-22.859922834496718
 20
81.12503119423091
  0
LWPOLYLINE
  5
14E
330
17
100
AcDbEntity
  8
rows
100
AcDbPolyline
 90
2
 70
0
 10
-18.859902714476448
 20
-8.48421088366072
 10
-18.859902714476448
 20
81.80964285226985
  0
LWPOLYLINE
  5
14F
330
17
100
AcDbEntity
  8
rows
100
AcDbPolyline
 90
2
 70
0
 10
-14.859882594538197
 20
-5.134265170067646
 10
-14.859882594538197
 20
82.49425451030878
  0
LWPOLYLINE
  5
150
330
17
100
AcDbEntity
  8
rows
100
AcDbPolyline
 90
2
 70
0
 10
-10.859862474517923
 20
-1.7843194572646577
 10
-10.859862474517923
 20
83.17886616913778
  0
LWPOLYLINE
  5
151
330
17
100
AcDbEntity
  8
rows
100
AcDbPolyline
 90
2
 70
0
 10
-6.8598423544976495
 20
1.5656262563284178
 10
-6.8598423544976495
 20
83.86347782717671
  0
LWPOLYLINE
  5
152
330
17
100
AcDbEntity
  8
rows
100
AcDbPolyline
 90
2
 70
0
 10
-2.859822234477376
 20
4.915571969131406
 10
-2.859822234477376
 20
73.86217112763056
  0
LWPOLYLINE
  5
153
330
17
100
AcDbEntity
  8
rows
100
AcDbPolyline
 90
2
 70
0
 10
1.140197885542899
 20
8.265517682724482
 10
1.140197885542899
 20
55.242119207328535
  0
LWPOLYLINE
  5
154
330
17
100
AcDbEntity
  8
rows
100
AcDbPolyline
 90
2
 70
0
 10
5.140218005563173
 20
11.615463395527469
 10
5.140218005563173
 20
36.622067287816584
  0
LWPOLYLINE
  5
155
330
17
100
AcDbEntity
  8
rows
100
AcDbPolyline
 90
2
 70
0
 10
9.140238125583448
 20
14.965409109120547
 10
9.140238125583448
 20
18.00201536751455
  0
LWPOLYLINE
  5
156
330
17
100
AcDbEntity
  8
rows
100
AcDbPolyline
 90
2
 70
0
 10
-172.94646205806947
 20
-61.35043211230367
 10
-172.94646205806947
 20
-30.770222527095726
  0
LWPOLYLINE
  5
157
330
17
100
AcDbEntity
  8
rows
100
AcDbPolyline
 90
2
 70
0
 10
-168.9464701749598
 20
-62.12631786252961
 10
-168.9464701749598
 20
29.614310893094217
  0
LWPOLYLINE
  5
158
330
17
100
AcDbEntity
  8
rows
100
AcDbPolyline
 90
2
 70
0
 10
-164.9464782917681
 20
-62.90220361275556
 10
-164.9464782917681
 20
54.90177595045843
  0
LWPOLYLINE
  5
159
330
17
100
AcDbEntity
  8
rows
100
AcDbPolyline
 90
2
 70
0
 10
-160.94648640857642
 20
-63.678089362981495
 10
-160.94648640857642
 20
52.16029744137127
  0
LWPOLYLINE
  5
15A
330
17
100
AcDbEntity
  8
rows
100
AcDbPolyline
 90
2
 70
0
 10
-156.94649452546673
 20
-64.45397511320745
 10
-156.94649452546673
 20
49.418818932284104
  0
LWPOLYLINE
  5
15B
330
17
100
AcDbEntity
  8
rows
100
AcDbPolyline
 90
2
 70
0
 10
-152.94650264227505
 20
-65.22986086343339
 10
-152.94650264227505
 20
46.677340423196945
  0
LWPOLYLINE
  5
15C
330
17
100
AcDbEntity
  8
rows
100
AcDbPolyline
 90
2
 70
0
 10
-148.94651075908334
 20
-66.00574661365933
 10
-148.94651075908334
 20
43.93586191331969
  0
LWPOLYLINE
  5
15D
330
17
100
AcDbEntity
  8
rows
100
AcDbPolyline
 90
2
 70
0
 10
-144.94651887597368
 20
-66.78163236467536
 10
-144.94651887597368
 20
41.19438340423253
  0
LWPOLYLINE
  5
15E
330
17
100
AcDbEntity
  8
rows
100
AcDbPolyline
 90
2
 70
0
 10
-140.94652699278197
 20
-67.55751811490131
 10
-140.94652699278197
 20
38.452904895145366
  0
LWPOLYLINE
  5
15F
330
17
100
AcDbEntity
  8
rows
100
AcDbPolyline
 90
2
 70
0
 10
-136.91104066939405
 20
-68.34028878613493
 10
-136.91104066939405
 20
35.68709952558226
  0
LWPOLYLINE
  5
160
330
17
100
AcDbEntity
  8
rows
100
AcDbPolyline
 90
2
 70
0
 10
-132.9110543997573
 20
-69.11617344762033
 10
-132.9110543997573
 20
32.945624863431
  0
LWPOLYLINE
  5
161
330
17
100
AcDbEntity
  8
rows
100
AcDbPolyline
 90
2
 70
0
 10
-128.91106813012053
 20
-69.89205810910575
 10
-128.91106813012053
 20
30.20415020127975
  0
LWPOLYLINE
  5
162
330
17
100
AcDbEntity
  8
rows
100
AcDbPolyline
 90
2
 70
0
 10
-124.9110818604838
 20
-70.66794277059115
 10
-124.9110818604838
 20
27.46267553991858
  0
LWPOLYLINE
  5
163
330
17
100
AcDbEntity
  8
rows
100
AcDbPolyline
 90
2
 70
0
 10
-120.91109559084704
 20
-71.44382743207655
 10
-120.91109559084704
 20
24.721200877767327
  0
LWPOLYLINE
  5
164
330
17
100
AcDbEntity
  8
rows
100
AcDbPolyline
 90
2
 70
0
 10
-116.91110932121029
 20
-72.21971209356195
 10
-116.91110932121029
 20
21.979726215616076
  0
LWPOLYLINE
  5
165
330
17
100
AcDbEntity
  8
rows
100
AcDbPolyline
 90
2
 70
0
 10
-112.91112305157353
 20
-72.99559675504736
 10
-112.91112305157353
 20
19.23825155346482
  0
LWPOLYLINE
  5
166
330
17
100
AcDbEntity
  8
rows
100
AcDbPolyline
 90
2
 70
0
 10
-108.9111367819368
 20
-73.77148141653277
 10
-108.9111367819368
 20
16.496776892103654
  0
LWPOLYLINE
  5
167
330
17
100
AcDbEntity
  8
rows
100
AcDbPolyline
 90
2
 70
0
 10
-104.91115051230005
 20
-74.54736607801817
 10
-104.91115051230005
 20
13.755302229952397
  0
LWPOLYLINE
  5
168
330
17
100
AcDbEntity
  8
rows
100
AcDbPolyline
 90
2
 70
0
 10
-99.02204867716148
 20
-75.68968594544977
 10
-99.02204867716148
 20
9.719082509534983
  0
LWPOLYLINE
  5
169
330
17
100
AcDbEntity
  8
rows
100
AcDbPolyline
 90
2
 70
0
 10
-95.0220668540259
 20
-76.46556974415965
 10
-95.0220668540259
 20
6.977610895541203
  0
LWPOLYLINE
  5
16A
330
17
100
AcDbEntity
  8
rows
100
AcDbPolyline
 90
2
 70
0
 10
-91.02208503080828
 20
-77.24145354286954
 10
-91.02208503080828
 20
4.236139280757334
  0
LWPOLYLINE
  5
16B
330
17
100
AcDbEntity
  8
rows
100
AcDbPolyline
 90
2
 70
0
 10
-87.0221032076727
 20
-78.0173373423695
 10
-87.0221032076727
 20
1.4946676659734672
  0
LWPOLYLINE
  5
16C
330
17
100
AcDbEntity
  8
rows
100
AcDbPolyline
 90
2
 70
0
 10
-83.02212138453713
 20
-78.79322114107939
 10
-83.02212138453713
 20
-1.246803948020313
  0
LWPOLYLINE
  5
16D
330
17
100
AcDbEntity
  8
rows
100
AcDbPolyline
 90
2
 70
0
 10
-79.02213956140153
 20
-79.56910493978927
 10
-79.02213956140153
 20
-3.988275562804181
  0
LWPOLYLINE
  5
16E
330
17
100
AcDbEntity
  8
rows
100
AcDbPolyline
 90
2
 70
0
 10
-75.02215773818394
 20
-79.910449457133
 10
-75.02215773818394
 20
-6.729747176797961
  0
LWPOLYLINE
  5
16F
330
17
100
AcDbEntity
  8
rows
100
AcDbPolyline
 90
2
 70
0
 10
-71.02217591504835
 20
-75.7238914726632
 10
-71.02217591504835
 20
-9.47121879158183
  0
LWPOLYLINE
  5
170
330
17
100
AcDbEntity
  8
rows
100
AcDbPolyline
 90
2
 70
0
 10
-67.02219409191277
 20
-71.5373334881934
 10
-67.02219409191277
 20
-12.212690406365697
  0
LWPOLYLINE
  5
171
330
17
100
AcDbEntity
  8
rows
100
AcDbPolyline
 90
2
 70
0
 10
-63.02221226877719
 20
-67.3507755037236
 10
-63.02221226877719
 20
-14.954162020359478
  0
LWPOLYLINE
  5
172
330
17
100
AcDbEntity
  8
rows
100
AcDbPolyline
 90
2
 70
0
 10
-59.022230445559586
 20
-63.1642175192538
 10
-59.022230445559586
 20
-17.69563363514334
  0
LWPOLYLINE
  5
173
330
17
100
AcDbEntity
  8
rows
100
AcDbPolyline
 90
2
 70
0
 10
-55.02224862242401
 20
-58.977659534783996
 10
-55.02224862242401
 20
-20.437105249137122
  0
LWPOLYLINE
  5
174
330
17
100
AcDbEntity
  8
rows
100
AcDbPolyline
 90
2
 70
0
 10
-51.022266799288424
 20
-54.791101550314195
 10
-51.022266799288424
 20
-23.17857686392099
  0
LWPOLYLINE
  5
175
330
17
100
AcDbEntity
  8
rows
100
AcDbPolyline
 90
2
 70
0
 10
-47.02228497615285
 20
-50.6045435658444
 10
-47.02228497615285
 20
-25.920048477914772
  0
LWPOLYLINE
  5
176
330
17
100
AcDbEntity
  8
rows
100
AcDbPolyline
 90
2
 70
0
 10
-43.02230315293524
 20
-46.4179855813746
 10
-43.02230315293524
 20
-28.66152009269864
  0
LWPOLYLINE
  5
177
330
17
100
AcDbEntity
  8
rows
100
AcDbPolyline
 90
2
 70
0
 10
-39.02232132979966
 20
-42.231427596904794
 10
-39.02232132979966
 20
-31.402991707482506
  0
LWPOLYLINE
  5
178
330
17
100
AcDbEntity
  8
rows
100
AcDbPolyline
 90
2
 70
0
 10
-35.022339506664075
 20
-38.044869612434994
 10
-35.022339506664075
 20
-34.14446332147629
  0
LWPOLYLINE
  5
179
330
17
100
AcDbEntity
  8
rows
100
AcDbPolyline
 90
2
 70
0
 10
-228.93033173273548
 20
-142.9503664124244
 10
-228.93033173273548
 20
-122.65693502843686
  0
LWPOLYLINE
  5
17A
330
17
100
AcDbEntity
  8
rows
100
AcDbPolyline
 90
2
 70
0
 10
-224.93038735547373
 20
-183.07721146789225
 10
-224.93038735547373
 20
-122.1969173151396
  0
LWPOLYLINE
  5
17B
330
17
100
AcDbEntity
  8
rows
100
AcDbPolyline
 90
2
 70
0
 10
-220.93044297812995
 20
-186.56950148664393
 10
-220.93044297812995
 20
-121.73689960184231
  0
LWPOLYLINE
  5
17C
330
17
100
AcDbEntity
  8
rows
100
AcDbPolyline
 90
2
 70
0
 10
-216.93049860086813
 20
-186.60734394056635
 10
-216.93049860086813
 20
-121.27688188775495
  0
LWPOLYLINE
  5
17D
330
17
100
AcDbEntity
  8
rows
100
AcDbPolyline
 90
2
 70
0
 10
-212.93055422352433
 20
-186.64518639448875
 10
-212.93055422352433
 20
-120.81686417445769
  0
LWPOLYLINE
  5
17E
330
17
100
AcDbEntity
  8
rows
100
AcDbPolyline
 90
2
 70
0
 10
-208.93060984626254
 20
-186.68302884841117
 10
-208.93060984626254
 20
-120.35684646116042
  0
LWPOLYLINE
  5
17F
330
17
100
AcDbEntity
  8
rows
100
AcDbPolyline
 90
2
 70
0
 10
-204.9306654689187
 20
-186.7208713023336
 10
-204.9306654689187
 20
-119.89682874786314
  0
LWPOLYLINE
  5
180
330
17
100
AcDbEntity
  8
rows
100
AcDbPolyline
 90
2
 70
0
 10
-200.9307210915749
 20
-186.75871375625601
 10
-200.9307210915749
 20
-119.43681103456588
  0
LWPOLYLINE
  5
181
330
17
100
AcDbEntity
  8
rows
100
AcDbPolyline
 90
2
 70
0
 10
-196.9307767143131
 20
-186.79655621017844
 10
-196.9307767143131
 20
-118.9767933204785
  0
LWPOLYLINE
  5
182
330
17
100
AcDbEntity
  8
rows
100
AcDbPolyline
 90
2
 70
0
 10
-192.9308323369693
 20
-186.83439866489093
 10
-192.9308323369693
 20
-118.51677560718123
  0
LWPOLYLINE
  5
183
330
17
100
AcDbEntity
  8
rows
100
AcDbPolyline
 90
2
 70
0
 10
-188.93088795970752
 20
-186.87224111881335
 10
-188.93088795970752
 20
-118.05675789388397
  0
LWPOLYLINE
  5
184
330
17
100
AcDbEntity
  8
rows
100
AcDbPolyline
 90
2
 70
0
 10
-184.9309435823637
 20
-186.91008357273577
 10
-184.9309435823637
 20
-108.68505649866898
  0
LWPOLYLINE
  5
185
330
17
100
AcDbEntity
  8
rows
100
AcDbPolyline
 90
2
 70
0
 10
-180.93099920510195
 20
-186.9479260266582
 10
-180.93099920510195
 20
-89.56663392061876
  0
LWPOLYLINE
  5
186
330
17
100
AcDbEntity
  8
rows
100
AcDbPolyline
 90
2
 70
0
 10
-176.93105482775815
 20
-186.9857684805806
 10
-176.93105482775815
 20
-70.44821134335864
  0
LWPOLYLINE
  5
187
330
17
100
AcDbEntity
  8
rows
100
AcDbPolyline
 90
2
 70
0
 10
-172.93111045049633
 20
-187.023610934503
 10
-172.93111045049633
 20
-61.35340989115572
  0
LWPOLYLINE
  5
188
330
17
100
AcDbEntity
  8
rows
100
AcDbPolyline
 90
2
 70
0
 10
-168.93116607315253
 20
-187.06145338842543
 10
-168.93116607315253
 20
-62.12928642659145
  0
LWPOLYLINE
  5
189
330
17
100
AcDbEntity
  8
rows
100
AcDbPolyline
 90
2
 70
0
 10
-164.93122169589077
 20
-187.09929584313795
 10
-164.93122169589077
 20
-62.905162962817265
  0
LWPOLYLINE
  5
18A
330
17
100
AcDbEntity
  8
rows
100
AcDbPolyline
 90
2
 70
0
 10
-162.594879341146
 20
-187.12139938245093
 10
-162.594879341146
 20
-63.35834756746321
  0
LWPOLYLINE
  5
18B
330
17
100
AcDbEntity
  8
rows
100
AcDbPolyline
 90
2
 70
0
 10
-158.594937947713
 20
-187.15924180793021
 10
-158.594937947713
 20
-64.13422352376483
  0
LWPOLYLINE
  5
18C
330
17
100
AcDbEntity
  8
rows
100
AcDbPolyline
 90
2
 70
0
 10
-154.59499655419793
 20
-187.19708423419956
 10
-154.59499655419793
 20
-64.91009948085653
  0
LWPOLYLINE
  5
18D
330
17
100
AcDbEntity
  8
rows
100
AcDbPolyline
 90
2
 70
0
 10
-150.5950551607649
 20
-187.23492665967885
 10
-150.5950551607649
 20
-65.68597543794824
  0
LWPOLYLINE
  5
18E
330
17
100
AcDbEntity
  8
rows
100
AcDbPolyline
 90
2
 70
0
 10
-146.59511376733187
 20
-187.2727690859482
 10
-146.59511376733187
 20
-66.46185139424986
  0
LWPOLYLINE
  5
18F
330
17
100
AcDbEntity
  8
rows
100
AcDbPolyline
 90
2
 70
0
 10
-142.59517237389883
 20
-187.31061151142745
 10
-142.59517237389883
 20
-67.23772735134158
  0
LWPOLYLINE
  5
190
330
17
100
AcDbEntity
  8
rows
100
AcDbPolyline
 90
2
 70
0
 10
-138.59523098046583
 20
-187.3484539376968
 10
-138.59523098046583
 20
-68.0136033076432
  0
LWPOLYLINE
  5
191
330
17
100
AcDbEntity
  8
rows
100
AcDbPolyline
 90
2
 70
0
 10
-134.59528958695077
 20
-187.3862963631761
 10
-134.59528958695077
 20
-68.7894792647349
  0
LWPOLYLINE
  5
192
330
17
100
AcDbEntity
  8
rows
100
AcDbPolyline
 90
2
 70
0
 10
-130.59534819351774
 20
-187.42413878944544
 10
-130.59534819351774
 20
-69.5653552218266
  0
LWPOLYLINE
  5
193
330
17
100
AcDbEntity
  8
rows
100
AcDbPolyline
 90
2
 70
0
 10
-126.59540680008469
 20
-187.46198121492472
 10
-126.59540680008469
 20
-70.34123117812821
  0
LWPOLYLINE
  5
194
330
17
100
AcDbEntity
  8
rows
100
AcDbPolyline
 90
2
 70
0
 10
-122.59546540665168
 20
-187.49982364119407
 10
-122.59546540665168
 20
-71.11710713521992
  0
LWPOLYLINE
  5
195
330
17
100
AcDbEntity
  8
rows
100
AcDbPolyline
 90
2
 70
0
 10
-119.50033370085343
 20
-187.52910589317162
 10
-119.50033370085343
 20
-71.71747549988024
  0
LWPOLYLINE
  5
196
330
17
100
AcDbEntity
  8
rows
100
AcDbPolyline
 90
2
 70
0
 10
-115.50038757235478
 20
-187.56694836368587
 10
-115.50038757235478
 20
-72.49335237505359
  0
LWPOLYLINE
  5
197
330
17
100
AcDbEntity
  8
rows
100
AcDbPolyline
 90
2
 70
0
 10
-111.5004414438561
 20
-187.60479083420012
 10
-111.5004414438561
 20
-73.26922925022694
  0
LWPOLYLINE
  5
198
330
17
100
AcDbEntity
  8
rows
100
AcDbPolyline
 90
2
 70
0
 10
-107.50049531535743
 20
-187.64263330471437
 10
-107.50049531535743
 20
-74.04510612540028
  0
LWPOLYLINE
  5
199
330
17
100
AcDbEntity
  8
rows
100
AcDbPolyline
 90
2
 70
0
 10
-103.50054918677675
 20
-187.68047577601874
 10
-103.50054918677675
 20
-74.82098300057363
  0
LWPOLYLINE
  5
19A
330
17
100
AcDbEntity
  8
rows
100
AcDbPolyline
 90
2
 70
0
 10
-99.50060305827812
 20
-187.71831824653296
 10
-99.50060305827812
 20
-75.59685987574699
  0
LWPOLYLINE
  5
19B
330
17
100
AcDbEntity
  8
rows
100
AcDbPolyline
 90
2
 70
0
 10
-95.50065692977944
 20
-187.75616071704724
 10
-95.50065692977944
 20
-76.37273675092034
  0
LWPOLYLINE
  5
19C
330
17
100
AcDbEntity
  8
rows
100
AcDbPolyline
 90
2
 70
0
 10
-91.50071080128077
 20
-187.7940031875615
 10
-91.50071080128077
 20
-77.14861362609369
  0
LWPOLYLINE
  5
19D
330
17
100
AcDbEntity
  8
rows
100
AcDbPolyline
 90
2
 70
0
 10
-87.50076467278213
 20
-187.83184565807574
 10
-87.50076467278213
 20
-77.92449050126704
  0
LWPOLYLINE
  5
19E
330
17
100
AcDbEntity
  8
rows
100
AcDbPolyline
 90
2
 70
0
 10
-83.50081854420145
 20
-187.86968812859
 10
-83.50081854420145
 20
-135.58276327298125
  0
LWPOLYLINE
  5
19F
330
17
100
AcDbEntity
  8
rows
100
AcDbPolyline
 90
2
 70
0
 10
-83.50081854420145
 20
-116.1926075234233
 10
-83.50081854420145
 20
-78.7003673764404
  0
LWPOLYLINE
  5
1A0
330
17
100
AcDbEntity
  8
rows
100
AcDbPolyline
 90
2
 70
0
 10
-79.50087241570277
 20
-187.90753059910423
 10
-79.50087241570277
 20
-138.55117359643512
  0
LWPOLYLINE
  5
1A1
330
17
100
AcDbEntity
  8
rows
100
AcDbPolyline
 90
2
 70
0
 10
-79.50087241570277
 20
-98.51873510007249
 10
-79.50087241570277
 20
-79.47624425161375
  0
LWPOLYLINE
  5
1A2
330
17
100
AcDbEntity
  8
rows
100
AcDbPolyline
 90
2
 70
0
 10
-75.50092628720411
 20
-183.06729029365857
 10
-75.50092628720411
 20
-141.51958391988904
  0
LWPOLYLINE
  5
1A3
330
17
100
AcDbEntity
  8
rows
100
AcDbPolyline
 90
2
 70
0
 10
-75.50092628720411
 20
-80.84486267672165
 10
-75.50092628720411
 20
-80.25212112678709
  0
LWPOLYLINE
  5
1A4
330
17
100
AcDbEntity
  8
rows
100
AcDbPolyline
 90
2
 70
0
 10
-71.50098015870545
 20
-177.27006452808945
 10
-71.50098015870545
 20
-144.48799424255284
  0
LWPOLYLINE
  5
1A5
330
17
100
AcDbEntity
  8
rows
100
AcDbPolyline
 90
2
 70
0
 10
-67.50103403012477
 20
-171.47283876173023
 10
-67.50103403012477
 20
-147.45640456600674
  0
LWPOLYLINE
  5
1A6
330
17
100
AcDbEntity
  8
rows
100
AcDbPolyline
 90
2
 70
0
 10
-63.50108790162611
 20
-165.6756129961611
 10
-63.50108790162611
 20
-150.42481488946063
  0
LWPOLYLINE
  5
1A7
330
17
100
AcDbEntity
  8
rows
100
AcDbPolyline
 90
2
 70
0
 10
-59.50114177312744
 20
-159.8783872298019
 10
-59.50114177312744
 20
-153.39322521291453
  0
LWPOLYLINE
  5
1A8
330
17
100
AcDbEntity
  8
rows
100
AcDbPolyline
 90
2
 70
0
 10
-222.58576427846626
 20
-212.2237040445326
 10
-222.58576427846626
 20
-186.55384091315796
  0
LWPOLYLINE
  5
1A9
330
17
100
AcDbEntity
  8
rows
100
AcDbPolyline
 90
2
 70
0
 10
-218.58586419027222
 20
-263.60127234245795
 10
-218.58586419027222
 20
-186.591682948334
  0
LWPOLYLINE
  5
1AA
330
17
100
AcDbEntity
  8
rows
100
AcDbPolyline
 90
2
 70
0
 10
-214.58596410207815
 20
-270.63844943223546
 10
-214.58596410207815
 20
-186.62952498351007
  0
LWPOLYLINE
  5
1AB
330
17
100
AcDbEntity
  8
rows
100
AcDbPolyline
 90
2
 70
0
 10
-210.58606401388408
 20
-270.7748157459463
 10
-210.58606401388408
 20
-186.66736701868612
  0
LWPOLYLINE
  5
1AC
330
17
100
AcDbEntity
  8
rows
100
AcDbPolyline
 90
2
 70
0
 10
-206.586163925608
 20
-270.911182059657
 10
-206.586163925608
 20
-186.70520905386218
  0
LWPOLYLINE
  5
1AD
330
17
100
AcDbEntity
  8
rows
100
AcDbPolyline
 90
2
 70
0
 10
-202.58626383741392
 20
-271.0475483733678
 10
-202.58626383741392
 20
-186.74305108824814
  0
LWPOLYLINE
  5
1AE
330
17
100
AcDbEntity
  8
rows
100
AcDbPolyline
 90
2
 70
0
 10
-198.58636374921986
 20
-271.1839146870785
 10
-198.58636374921986
 20
-186.78089312342422
  0
LWPOLYLINE
  5
1AF
330
17
100
AcDbEntity
  8
rows
100
AcDbPolyline
 90
2
 70
0
 10
-194.58646366102582
 20
-271.32028100078935
 10
-194.58646366102582
 20
-186.81873515860028
  0
LWPOLYLINE
  5
1B0
330
17
100
AcDbEntity
  8
rows
100
AcDbPolyline
 90
2
 70
0
 10
-190.58656357283175
 20
-271.4566473145001
 10
-190.58656357283175
 20
-186.8565771937763
  0
LWPOLYLINE
  5
1B1
330
17
100
AcDbEntity
  8
rows
100
AcDbPolyline
 90
2
 70
0
 10
-186.58666348463765
 20
-271.59301362900095
 10
-186.58666348463765
 20
-186.8944192289524
  0
LWPOLYLINE
  5
1B2
330
17
100
AcDbEntity
  8
rows
100
AcDbPolyline
 90
2
 70
0
 10
-182.58676339644362
 20
-271.7293799427118
 10
-182.58676339644362
 20
-186.93226126412844
  0
LWPOLYLINE
  5
1B3
330
17
100
AcDbEntity
  8
rows
100
AcDbPolyline
 90
2
 70
0
 10
-178.58686330824955
 20
-271.86574625642254
 10
-178.58686330824955
 20
-186.9701032985144
  0
LWPOLYLINE
  5
1B4
330
17
100
AcDbEntity
  8
rows
100
AcDbPolyline
 90
2
 70
0
 10
-172.61442671494123
 20
-272.06936113251595
 10
-172.61442671494123
 20
-187.02660699913955
  0
LWPOLYLINE
  5
1B5
330
17
100
AcDbEntity
  8
rows
100
AcDbPolyline
 90
2
 70
0
 10
-168.61452708485763
 20
-272.20572743042493
 10
-168.61452708485763
 20
-187.0644490295751
  0
LWPOLYLINE
  5
1B6
330
17
100
AcDbEntity
  8
rows
100
AcDbPolyline
 90
2
 70
0
 10
-164.61462745477402
 20
-272.3420937291241
 10
-164.61462745477402
 20
-187.10229106001063
  0
LWPOLYLINE
  5
1B7
330
17
100
AcDbEntity
  8
rows
100
AcDbPolyline
 90
2
 70
0
 10
-160.61472782469036
 20
-272.4784600270331
 10
-160.61472782469036
 20
-187.14013309123627
  0
LWPOLYLINE
  5
1B8
330
17
100
AcDbEntity
  8
rows
100
AcDbPolyline
 90
2
 70
0
 10
-156.61482819460676
 20
-272.6148263249421
 10
-156.61482819460676
 20
-187.17797512167178
  0
LWPOLYLINE
  5
1B9
330
17
100
AcDbEntity
  8
rows
100
AcDbPolyline
 90
2
 70
0
 10
-152.61492856452313
 20
-272.7511926228512
 10
-152.61492856452313
 20
-187.2158171528974
  0
LWPOLYLINE
  5
1BA
330
17
100
AcDbEntity
  8
rows
100
AcDbPolyline
 90
2
 70
0
 10
-148.6150289344395
 20
-272.88755892155024
 10
-148.6150289344395
 20
-187.25365918333293
  0
LWPOLYLINE
  5
1BB
330
17
100
AcDbEntity
  8
rows
100
AcDbPolyline
 90
2
 70
0
 10
-144.6151293043559
 20
-273.02392521945933
 10
-144.6151293043559
 20
-187.29150121376847
  0
LWPOLYLINE
  5
1BC
330
17
100
AcDbEntity
  8
rows
100
AcDbPolyline
 90
2
 70
0
 10
-140.61522967427226
 20
-273.1602915173683
 10
-140.61522967427226
 20
-187.32934324499408
  0
LWPOLYLINE
  5
1BD
330
17
100
AcDbEntity
  8
rows
100
AcDbPolyline
 90
2
 70
0
 10
-136.61533004418865
 20
-273.29665781527734
 10
-136.61533004418865
 20
-187.36718527542962
  0
LWPOLYLINE
  5
1BE
330
17
100
AcDbEntity
  8
rows
100
AcDbPolyline
 90
2
 70
0
 10
-132.61543041410505
 20
-273.4330241131864
 10
-132.61543041410505
 20
-187.40502730586516
  0
LWPOLYLINE
  5
1BF
330
17
100
AcDbEntity
  8
rows
100
AcDbPolyline
 90
2
 70
0
 10
-128.6155307841034
 20
-273.5693904118855
 10
-128.6155307841034
 20
-187.44286933709077
  0
LWPOLYLINE
  5
1C0
330
17
100
AcDbEntity
  8
rows
100
AcDbPolyline
 90
2
 70
0
 10
-126.53452917139309
 20
-273.640336813561
 10
-126.53452917139309
 20
-187.46255716262024
  0
LWPOLYLINE
  5
1C1
330
17
100
AcDbEntity
  8
rows
100
AcDbPolyline
 90
2
 70
0
 10
-122.53462278842525
 20
-273.77670334217555
 10
-122.53462278842525
 20
-187.50039925705283
  0
LWPOLYLINE
  5
1C2
330
17
100
AcDbEntity
  8
rows
100
AcDbPolyline
 90
2
 70
0
 10
-118.53471640553941
 20
-273.91306987
 10
-118.53471640553941
 20
-187.53824135227555
  0
LWPOLYLINE
  5
1C3
330
17
100
AcDbEntity
  8
rows
100
AcDbPolyline
 90
2
 70
0
 10
-114.53481002257158
 20
-274.0494363986146
 10
-114.53481002257158
 20
-187.57608344670817
  0
LWPOLYLINE
  5
1C4
330
17
100
AcDbEntity
  8
rows
100
AcDbPolyline
 90
2
 70
0
 10
-110.53490363960371
 20
-274.1858029272292
 10
-110.53490363960371
 20
-187.6139255411408
  0
LWPOLYLINE
  5
1C5
330
17
100
AcDbEntity
  8
rows
100
AcDbPolyline
 90
2
 70
0
 10
-106.53499725671787
 20
-274.32216945505365
 10
-106.53499725671787
 20
-187.6517676355734
  0
LWPOLYLINE
  5
1C6
330
17
100
AcDbEntity
  8
rows
100
AcDbPolyline
 90
2
 70
0
 10
-102.53509087375002
 20
-274.45853598366824
 10
-102.53509087375002
 20
-187.68960973000603
  0
LWPOLYLINE
  5
1C7
330
17
100
AcDbEntity
  8
rows
100
AcDbPolyline
 90
2
 70
0
 10
-98.53518449078217
 20
-274.5949025122828
 10
-98.53518449078217
 20
-187.7274518252287
  0
LWPOLYLINE
  5
1C8
330
17
100
AcDbEntity
  8
rows
100
AcDbPolyline
 90
2
 70
0
 10
-94.53527810789633
 20
-274.73126904010724
 10
-94.53527810789633
 20
-187.76529391966133
  0
LWPOLYLINE
  5
1C9
330
17
100
AcDbEntity
  8
rows
100
AcDbPolyline
 90
2
 70
0
 10
-90.53537172492848
 20
-274.8676355687218
 10
-90.53537172492848
 20
-187.80313601409395
  0
LWPOLYLINE
  5
1CA
330
17
100
AcDbEntity
  8
rows
100
AcDbPolyline
 90
2
 70
0
 10
-86.53546534196063
 20
-267.5007511544717
 10
-86.53546534196063
 20
-187.84097810852657
  0
LWPOLYLINE
  5
1CB
330
17
100
AcDbEntity
  8
rows
100
AcDbPolyline
 90
2
 70
0
 10
-82.53555895899278
 20
-226.10732384463654
 10
-82.53555895899278
 20
-187.87882020374929
  0
ENDSEC
  0
SECTION
  2
OBJECTS
  0
DICTIONARY
  5
A
330
0
100
AcDbDictionary
281
1
  3
ACAD_COLOR
350
B
  3
ACAD_GROUP
350
C
  3
ACAD_LAYOUT
350
D
  3
ACAD_MATERIAL
350
E
  3
ACAD_MLEADERSTYLE
350
F
  3
ACAD_MLINESTYLE
350
10
  3
ACAD_PLOTSETTINGS
350
11
  3
ACAD_PLOTSTYLENAME
350
12
  3
ACAD_SCALELIST
350
14
  3
ACAD_TABLESTYLE
350
15
  3
ACAD_VISUALSTYLE
350
16
  3
EZDXF_META
350
2D
  0
DICTIONARY
  5
B
330
A
100
AcDbDictionary
281
1
  0
DICTIONARY
  5
C
330
A
100
AcDbDictionary
281
1
  0
DICTIONARY
  5
D
330
A
100
AcDbDictionary
281
1
  3
Model
350
1A
  3
Layout1
350
1E
  0
DICTIONARY
  5
E
330
A
100
AcDbDictionary
281
1
  3
ByBlock
350
1F
  3
ByLayer
350
20
  3
Global
350
21
  0
DICTIONARY
  5
F
330
A
100
AcDbDictionary
281
1
  3
Standard
350
2C
  0
DICTIONARY
  5
10
330
A
100
AcDbDictionary
281
1
  3
Standard
350
22
  0
DICTIONARY
  5
11
330
A
100
AcDbDictionary
281
1
  0
ACDBDICTIONARYWDFLT
  5
12
330
A
100
AcDbDictionary
281
1
  3
Normal
350
13
100
AcDbDictionaryWithDefault
340
13
  0
ACDBPLACEHOLDER
  5
13
330
12
  0
DICTIONARY
  5
14
330
A
100
AcDbDictionary
281
1
  0
DICTIONARY
  5
15
330
A
100
AcDbDictionary
281
1
  0
DICTIONARY
  5
16
330
A
100
AcDbDictionary
281
1
  0
LAYOUT
  5
1A
330
D
100
AcDbPlotSettings
  1

  4
A3
  6

 40
7.5
 41
20.0
 42
7.5
 43
20.0
 44
420.0
 45
297.0
 46
0.0
 47
0.0
 48
0.0
 49
0.0
140
0.0
141
0.0
142
1.0
143
1.0
 70
1024
 72
1
 73
0
 74
5
  7

 75
16
 76
0
 77
2
 78
300
147
1.0
148
0.0
149
0.0
100
AcDbLayout
  1
Model
 70
1
 71
0
 10
0.0
 20
0.0
 11
420.0
 21
297.0
 12
0.0
 22
0.0
 32
0.0
 14
1e+20
 24
1e+20
 34
1e+20
 15
-1e+20
 25
-1e+20
 35
-1e+20
146
0.0
 13
0.0
 23
0.0
 33
0.0
 16
1.0
 26
0.0
 36
0.0
 17
0.0
 27
1.0
 37
0.0
 76
1
330
17
  0
LAYOUT
  5
1E
330
D
100
AcDbPlotSettings
  1

  4
A3
  6

 40
7.5
 41
20.0
 42
7.5
 43
20.0
 44
420.0
 45
297.0
 46
0.0
 47
0.0
 48
0.0
 49
0.0
140
0.0
141
0.0
142
1.0
143
1.0
 70
0
 72
1
 73
0
 74
5
  7

 75
16
 76
0
 77
2
 78
300
147
1.0
148
0.0
149
0.0
100
AcDbLayout
  1
Layout1
 70
1
 71
1
 10
0.0
 20
0.0
 11
420.0
 21
297.0
 12
0.0
 22
0.0
 32
0.0
 14
1e+20
 24
1e+20
 34
1e+20
 15
-1e+20
 25
-1e+20
 35
-1e+20
146
0.0
 13
0.0
 23
0.0
 33
0.0
 16
1.0
 26
0.0
 36
0.0
 17
0.0
 27
1.0
 37
0.0
 76
1
330
1B
  0
MATERIAL
  5
1F
102
{ACAD_REACTORS
330
E
102
}
330
E
100
AcDbMaterial
  1
ByBlock
  2

 70
0
 40
1.0
 71
1
 41
1.0
 91
-1023410177
 42
1.0
 72
1
  3

 73
1
 74
1
 75
1
 44
0.5
 73
0
 45
1.0
 46
1.0
 77
1
  4

 78
1
 79
1
170
1
 48
1.0
171
1
  6

172
1
173
1
174
1
140
1.0
141
1.0
175
1
  7

176
1
177
1
178
1
143
1.0
179
1
  8

270
1
271
1
272
1
145
1.0
146
1.0
273
1
  9

274
1
275
1
276
1
 42
1.0
 72
1
  3

 73
1
 74
1
 75
1
 94
63
  0
MATERIAL
  5
20
102
{ACAD_REACTORS
330
E
102
}
330
E
100
AcDbMaterial
  1
ByLayer
  2

 70
0
 40
1.0
 71
1
 41
1.0
 91
-1023410177
 42
1.0
 72
1
  3

 73
1
 74
1
 75
1
 44
0.5
 73
0
 45
1.0
 46
1.0
 77
1
  4

 78
1
 79
1
170
1
 48
1.0
171
1
  6

172
1
173
1
174
1
140
1.0
141
1.0
175
1
  7

176
1
177
1
178
1
143
1.0
179
1
  8

270
1
271
1
272
1
145
1.0
146
1.0
273
1
  9

274
1
275
1
276
1
 42
1.0
 72
1
  3

 73
1
 74
1
 75
1
 94
63
  0
MATERIAL
  5
21
102
{ACAD_REACTORS
330
E
102
}
330
E
100
AcDbMaterial
  1
Global
  2

 70
0
 40
1.0
 71
1
 41
1.0
 91
-1023410177
 42
1.0
 72
1
  3

 73
1
 74
1
 75
1
 44
0.5
 73
0
 45
1.0
 46
1.0
 77
1
  4

 78
1
 79
1
170
1
 48
1.0
171
1
  6

172
1
173
1
174
1
140
1.0
141
1.0
175
1
  7

176
1
177
1
178
1
143
1.0
179
1
  8

270
1
271
1
272
1
145
1.0
146
1.0
273
1
  9

274
1
275
1
276
1
 42
1.0
 72
1
  3

 73
1
 74
1
 75
1
 94
63
  0
MLINESTYLE
  5
22
102
{ACAD_REACTORS
330
10
102
}
330
10
100
AcDbMlineStyle
  2
Standard
 70
0
  3

 62
256
 51
90.0
 52
90.0
 71
2
 49
0.5
 62
256
  6
BYLAYER
 49
-0.5
 62
256
  6
BYLAYER
  0
MLEADERSTYLE
  5
2C
102
{ACAD_REACTORS
330
F
102
}
330
F
100
AcDbMLeaderStyle
179
2
170
2
171
1
172
0
 90
2
 40
0.0
 41
0.0
173
1
 91
-1056964608
 92
-2
290
1
 42
2.0
291
1
 43
8.0
  3
Standard
 44
4.0
300

342
29
174
1
175
1
176
0
178
1
 93
-1056964608
 45
4.0
292
0
297
0
 46
4.0
 94
-1056964608
 47
1.0
 49
1.0
140
1.0
294
1
141
0.0
177
0
142
1.0
295
0
296
0
143
3.75
271
0
272
9
273
9
  0
DICTIONARY
  5
2D
330
A
100
AcDbDictionary
280
1
281
1
  3
CREATED_BY_EZDXF
350
2E
  3
WRITTEN_BY_EZDXF
350
1CE
  0
DICTIONARYVAR
  5
2E
330
2D
100
DictionaryVariables
280
0
  1
1.4.4 @ 2026-09-30T06:45:30.126685+00:00
  0
DICTIONARYVAR
  5
1CE
330
2D
100
DictionaryVariables
280
0
  1
1.4.4 @ 2026-09-30T06:45:30.152557+00:00
  0
ENDSEC
  0
EOF
